<svg class="main-svg" xmlns="http://www.w3.org/2000/svg" xmlns:xlink="http://www.w3.org/1999/xlink" width="920" height="560" style="" viewBox="0 0 920 560"><rect x="0" y="0" width="920" height="560" style="fill: rgb(255, 255, 255); fill-opacity: 1;"/><defs id="defs-d9aa28"><g class="clips"><clipPath id="clipd9aa28xyplot" class="plotclip"><rect width="752" height="346"/></clipPath><clipPath id="clipd9aa28xy2plot" class="plotclip"><rect width="752" height="346"/></clipPath><clipPath class="axesclip" id="clipd9aa28x"><rect x="84" y="0" width="752" height="560"/></clipPath><clipPath class="axesclip" id="clipd9aa28y"><rect x="0" y="118" width="920" height="346"/></clipPath><clipPath class="axesclip" id="clipd9aa28xy"><rect x="84" y="118" width="752" height="346"/></clipPath><clipPath class="axesclip" id="clipd9aa28y2"><rect x="0" y="118" width="920" height="346"/></clipPath><clipPath class="axesclip" id="clipd9aa28xy2"><rect x="84" y="118" width="752" height="346"/></clipPath></g><g class="gradients"/><g class="patterns"/></defs><g class="bglayer"/><g class="layer-below"><g class="imagelayer"/><g class="shapelayer"/></g><g class="cartesianlayer"><g class="subplot xy"><g class="layer-subplot"><g class="shapelayer"/><g class="imagelayer"/></g><g class="minor-gridlayer"><g class="x"/><g class="y"/><g class="y2"/></g><g class="gridlayer"><g class="x"><path class="xgrid crisp" transform="translate(160.8,0)" d="M0,118v346" style="stroke: rgb(238, 241, 246); stroke-opacity: 1; stroke-width: 1px;"/><path class="xgrid crisp" transform="translate(237.59,0)" d="M0,118v346" style="stroke: rgb(238, 241, 246); stroke-opacity: 1; stroke-width: 1px;"/><path class="xgrid crisp" transform="translate(314.39,0)" d="M0,118v346" style="stroke: rgb(238, 241, 246); stroke-opacity: 1; stroke-width: 1px;"/><path class="xgrid crisp" transform="translate(391.19,0)" d="M0,118v346" style="stroke: rgb(238, 241, 246); stroke-opacity: 1; stroke-width: 1px;"/><path class="xgrid crisp" transform="translate(467.99,0)" d="M0,118v346" style="stroke: rgb(238, 241, 246); stroke-opacity: 1; stroke-width: 1px;"/><path class="xgrid crisp" transform="translate(544.78,0)" d="M0,118v346" style="stroke: rgb(238, 241, 246); stroke-opacity: 1; stroke-width: 1px;"/><path class="xgrid crisp" transform="translate(621.58,0)" d="M0,118v346" style="stroke: rgb(238, 241, 246); stroke-opacity: 1; stroke-width: 1px;"/><path class="xgrid crisp" transform="translate(698.38,0)" d="M0,118v346" style="stroke: rgb(238, 241, 246); stroke-opacity: 1; stroke-width: 1px;"/><path class="xgrid crisp" transform="translate(775.18,0)" d="M0,118v346" style="stroke: rgb(238, 241, 246); stroke-opacity: 1; stroke-width: 1px;"/></g><g class="y"><path class="ygrid crisp" transform="translate(0,357.53999999999996)" d="M84,0h752" style="stroke: rgb(238, 241, 246); stroke-opacity: 1; stroke-width: 1px;"/><path class="ygrid crisp" transform="translate(0,251.08)" d="M84,0h752" style="stroke: rgb(238, 241, 246); stroke-opacity: 1; stroke-width: 1px;"/><path class="ygrid crisp" transform="translate(0,144.62)" d="M84,0h752" style="stroke: rgb(238, 241, 246); stroke-opacity: 1; stroke-width: 1px;"/></g><g class="y2"/></g><g class="zerolinelayer"/><g class="layer-between"><g class="shapelayer"/><g class="imagelayer"/></g><path class="xlines-below"/><path class="ylines-below"/><g class="overlines-below"><path class="xy2-x"/><path class="xy2-y"/></g><g class="xaxislayer-below"/><g class="yaxislayer-below"/><g class="overaxes-below"><g class="xy2-x"/><g class="xy2-y"/></g><g class="overplot"><g class="xy" transform="translate(84,118)" clip-path="url(#clipd9aa28xyplot)"><g class="scatterlayer mlayer"><g class="trace scatter trace182b7e" style="stroke-miterlimit: 2; opacity: 1;"><g class="fills"/><g class="errorbars"/><g class="lines"><path class="js-line" d="M0.77,276.13L7.68,267.82L15.36,263.66L23.04,267.82L30.72,263.66L38.4,217.91L46.08,242.87L53.76,222.07L61.44,226.23L69.12,247.02L76.8,251.18L84.48,213.75L92.16,247.02L99.84,201.28L107.52,222.07L115.2,242.87L122.88,188.8L130.56,213.75L138.24,213.75L145.92,234.55L153.59,217.91L161.27,184.64L168.95,209.6L176.63,176.33L184.31,209.6L191.99,159.69L199.67,134.74L207.35,89L215.03,113.95L222.71,101.47L230.39,101.47L238.07,122.26L245.75,109.79L253.43,89L261.11,109.79L268.79,105.63L276.47,76.52L284.15,105.63L291.83,72.36L299.51,113.95L307.19,101.47L314.87,97.31L322.55,59.88L330.23,93.15L337.91,105.63L345.59,93.15L353.27,97.31L360.95,89L368.63,51.57L376.31,64.04L383.99,59.88L391.67,72.36L399.35,64.04L407.03,51.57L414.71,55.73L422.39,47.41L430.07,47.41L437.75,51.57L445.42,47.41L453.1,55.73L460.78,43.25L468.46,68.2L476.14,39.09L483.82,55.73L491.5,64.04L499.18,76.52L506.86,47.41L514.54,72.36L522.22,89L529.9,34.93L537.58,51.57L545.26,47.41L552.94,51.57L560.62,43.25L568.3,39.09L575.98,47.41L583.66,30.77L591.34,39.09L599.02,39.09L606.7,39.09L614.38,55.73L622.06,43.25L629.74,51.57L637.42,51.57L645.1,59.88L652.78,47.41L660.46,47.41L675.82,47.41L683.5,64.04L691.18,55.73L698.86,43.25L706.54,55.73L714.22,47.41L721.9,43.25L729.58,43.25L737.25,43.25" style="vector-effect: none; fill: none; stroke: rgb(99, 110, 250); stroke-opacity: 1; stroke-width: 2.4px; opacity: 1;"/></g><g class="points"/><g class="text"/></g></g></g><g class="xy2" transform="translate(84,118)" clip-path="url(#clipd9aa28xy2plot)"><g class="scatterlayer mlayer"><g class="trace scatter tracee6133c" style="stroke-miterlimit: 2; opacity: 1;"><g class="fills"/><g class="errorbars"/><g class="lines"><path class="js-line" d="M0.77,345.1L7.68,345.61L15.36,341.24L30.72,339.69L38.4,330.31L46.08,326.1L53.76,337.8L61.44,321.99L69.12,321.91L76.8,328.83L84.48,316.91L92.16,319.51L99.84,303.7L107.52,320.51L115.2,310.88L130.56,319.15L138.24,304.24L145.92,307.08L153.59,287.11L161.27,290.9L168.95,213.25L176.63,285.03L184.31,281.27L191.99,278.7L199.67,257.75L207.35,237.84L215.03,232.77L230.39,222.81L238.07,211.97L245.75,208.15L253.43,207.61L261.11,205.31L268.79,228.25L276.47,208.72L284.15,235.63L291.83,195.37L299.51,207.58L307.19,204.39L314.87,213.11L322.55,217.92L330.23,204.34L337.91,224.75L345.59,203.99L353.27,193.21L360.95,202.89L368.63,176.35L376.31,159.21L383.99,138.63L391.67,148.82L399.35,143.48L407.03,111.62L414.71,125.95L422.39,129.37L430.07,135.81L437.75,145.79L445.42,119.13L453.1,126.57L460.78,127.59L468.46,135.33L476.14,127.97L483.82,138.23L491.5,129.33L499.18,137.48L506.86,113.72L514.54,160.23L522.22,176.83L529.9,109.21L537.58,101.89L545.26,113.79L552.94,104.41L560.62,108.78L575.98,90.76L583.66,61.72L591.34,89.96L599.02,49.22L606.7,74.44L614.38,111.87L622.06,104.47L629.74,95.54L637.42,86.43L645.1,104.44L652.78,90.86L660.46,111.66L668.14,125.55L675.82,116.21L683.5,151.02L691.18,126.13L698.86,135.32L706.54,126.61L714.22,112.17L721.9,106.5L729.58,93.14L737.25,57.7" style="vector-effect: none; fill: none; stroke: rgb(0, 204, 150); stroke-opacity: 1; stroke-width: 2px; opacity: 1;"/></g><g class="points"/><g class="text"/></g></g></g></g><g class="zerolinelayer-above"/><path class="xlines-above crisp" d="M83,464.5H837" style="fill: none; stroke-width: 1px; stroke: rgb(207, 213, 223); stroke-opacity: 1;"/><path class="ylines-above crisp" d="M83.5,118V464" style="fill: none; stroke-width: 1px; stroke: rgb(207, 213, 223); stroke-opacity: 1;"/><g class="overlines-above"><path class="xy2-x crisp" d="M0,0" style="fill: none;"/><path class="xy2-y crisp" d="M836.5,118V464" style="fill: none; stroke-width: 1px; stroke: rgb(207, 213, 223); stroke-opacity: 1;"/></g><g class="xaxislayer-above"><path class="xtick ticks crisp" d="M0,465v5" transform="translate(84,0)" style="stroke: rgb(207, 213, 223); stroke-opacity: 1; stroke-width: 1px;"/><path class="xtick ticks crisp" d="M0,465v5" transform="translate(160.8,0)" style="stroke: rgb(207, 213, 223); stroke-opacity: 1; stroke-width: 1px;"/><path class="xtick ticks crisp" d="M0,465v5" transform="translate(237.59,0)" style="stroke: rgb(207, 213, 223); stroke-opacity: 1; stroke-width: 1px;"/><path class="xtick ticks crisp" d="M0,465v5" transform="translate(314.39,0)" style="stroke: rgb(207, 213, 223); stroke-opacity: 1; stroke-width: 1px;"/><path class="xtick ticks crisp" d="M0,465v5" transform="translate(391.19,0)" style="stroke: rgb(207, 213, 223); stroke-opacity: 1; stroke-width: 1px;"/><path class="xtick ticks crisp" d="M0,465v5" transform="translate(467.99,0)" style="stroke: rgb(207, 213, 223); stroke-opacity: 1; stroke-width: 1px;"/><path class="xtick ticks crisp" d="M0,465v5" transform="translate(544.78,0)" style="stroke: rgb(207, 213, 223); stroke-opacity: 1; stroke-width: 1px;"/><path class="xtick ticks crisp" d="M0,465v5" transform="translate(621.58,0)" style="stroke: rgb(207, 213, 223); stroke-opacity: 1; stroke-width: 1px;"/><path class="xtick ticks crisp" d="M0,465v5" transform="translate(698.38,0)" style="stroke: rgb(207, 213, 223); stroke-opacity: 1; stroke-width: 1px;"/><path class="xtick ticks crisp" d="M0,465v5" transform="translate(775.18,0)" style="stroke: rgb(207, 213, 223); stroke-opacity: 1; stroke-width: 1px;"/><g class="xtick"><text text-anchor="middle" x="0" y="484.4" transform="translate(84,0)" style="font-family: -apple-system, BlinkMacSystemFont, 'Segoe UI', sans-serif; font-size: 12px; fill: rgb(107, 114, 128); fill-opacity: 1; white-space: pre;">0</text></g><g class="xtick"><text text-anchor="middle" x="0" y="484.4" style="font-family: -apple-system, BlinkMacSystemFont, 'Segoe UI', sans-serif; font-size: 12px; fill: rgb(107, 114, 128); fill-opacity: 1; white-space: pre;" transform="translate(160.8,0)">100</text></g><g class="xtick"><text text-anchor="middle" x="0" y="484.4" style="font-family: -apple-system, BlinkMacSystemFont, 'Segoe UI', sans-serif; font-size: 12px; fill: rgb(107, 114, 128); fill-opacity: 1; white-space: pre;" transform="translate(237.59,0)">200</text></g><g class="xtick"><text text-anchor="middle" x="0" y="484.4" style="font-family: -apple-system, BlinkMacSystemFont, 'Segoe UI', sans-serif; font-size: 12px; fill: rgb(107, 114, 128); fill-opacity: 1; white-space: pre;" transform="translate(314.39,0)">300</text></g><g class="xtick"><text text-anchor="middle" x="0" y="484.4" style="font-family: -apple-system, BlinkMacSystemFont, 'Segoe UI', sans-serif; font-size: 12px; fill: rgb(107, 114, 128); fill-opacity: 1; white-space: pre;" transform="translate(391.19,0)">400</text></g><g class="xtick"><text text-anchor="middle" x="0" y="484.4" style="font-family: -apple-system, BlinkMacSystemFont, 'Segoe UI', sans-serif; font-size: 12px; fill: rgb(107, 114, 128); fill-opacity: 1; white-space: pre;" transform="translate(467.99,0)">500</text></g><g class="xtick"><text text-anchor="middle" x="0" y="484.4" style="font-family: -apple-system, BlinkMacSystemFont, 'Segoe UI', sans-serif; font-size: 12px; fill: rgb(107, 114, 128); fill-opacity: 1; white-space: pre;" transform="translate(544.78,0)">600</text></g><g class="xtick"><text text-anchor="middle" x="0" y="484.4" style="font-family: -apple-system, BlinkMacSystemFont, 'Segoe UI', sans-serif; font-size: 12px; fill: rgb(107, 114, 128); fill-opacity: 1; white-space: pre;" transform="translate(621.58,0)">700</text></g><g class="xtick"><text text-anchor="middle" x="0" y="484.4" style="font-family: -apple-system, BlinkMacSystemFont, 'Segoe UI', sans-serif; font-size: 12px; fill: rgb(107, 114, 128); fill-opacity: 1; white-space: pre;" transform="translate(698.38,0)">800</text></g><g class="xtick"><text text-anchor="middle" x="0" y="484.4" style="font-family: -apple-system, BlinkMacSystemFont, 'Segoe UI', sans-serif; font-size: 12px; fill: rgb(107, 114, 128); fill-opacity: 1; white-space: pre;" transform="translate(775.18,0)">900</text></g></g><g class="yaxislayer-above"><path class="ytick ticks crisp" d="M83,0h-5" transform="translate(0,464)" style="stroke: rgb(207, 213, 223); stroke-opacity: 1; stroke-width: 1px;"/><path class="ytick ticks crisp" d="M83,0h-5" transform="translate(0,357.53999999999996)" style="stroke: rgb(207, 213, 223); stroke-opacity: 1; stroke-width: 1px;"/><path class="ytick ticks crisp" d="M83,0h-5" transform="translate(0,251.08)" style="stroke: rgb(207, 213, 223); stroke-opacity: 1; stroke-width: 1px;"/><path class="ytick ticks crisp" d="M83,0h-5" transform="translate(0,144.62)" style="stroke: rgb(207, 213, 223); stroke-opacity: 1; stroke-width: 1px;"/><g class="ytick"><text text-anchor="end" x="75.6" y="4.199999999999999" transform="translate(0,464)" style="font-family: -apple-system, BlinkMacSystemFont, 'Segoe UI', sans-serif; font-size: 12px; fill: rgb(107, 114, 128); fill-opacity: 1; white-space: pre;">0.4</text></g><g class="ytick"><text text-anchor="end" x="75.6" y="4.199999999999999" style="font-family: -apple-system, BlinkMacSystemFont, 'Segoe UI', sans-serif; font-size: 12px; fill: rgb(107, 114, 128); fill-opacity: 1; white-space: pre;" transform="translate(0,357.53999999999996)">0.6</text></g><g class="ytick"><text text-anchor="end" x="75.6" y="4.199999999999999" style="font-family: -apple-system, BlinkMacSystemFont, 'Segoe UI', sans-serif; font-size: 12px; fill: rgb(107, 114, 128); fill-opacity: 1; white-space: pre;" transform="translate(0,251.08)">0.8</text></g><g class="ytick"><text text-anchor="end" x="75.6" y="4.199999999999999" style="font-family: -apple-system, BlinkMacSystemFont, 'Segoe UI', sans-serif; font-size: 12px; fill: rgb(107, 114, 128); fill-opacity: 1; white-space: pre;" transform="translate(0,144.62)">1</text></g></g><g class="overaxes-above"><g class="xy2-x"/><g class="xy2-y"><path class="y2tick ticks crisp" d="M837,0h5" transform="translate(0,464)" style="stroke: rgb(207, 213, 223); stroke-opacity: 1; stroke-width: 1px;"/><path class="y2tick ticks crisp" d="M837,0h5" transform="translate(0,381.62)" style="stroke: rgb(207, 213, 223); stroke-opacity: 1; stroke-width: 1px;"/><path class="y2tick ticks crisp" d="M837,0h5" transform="translate(0,299.24)" style="stroke: rgb(207, 213, 223); stroke-opacity: 1; stroke-width: 1px;"/><path class="y2tick ticks crisp" d="M837,0h5" transform="translate(0,216.86)" style="stroke: rgb(207, 213, 223); stroke-opacity: 1; stroke-width: 1px;"/><path class="y2tick ticks crisp" d="M837,0h5" transform="translate(0,134.48)" style="stroke: rgb(207, 213, 223); stroke-opacity: 1; stroke-width: 1px;"/><g class="y2tick"><text text-anchor="start" x="844.4" y="4.199999999999999" transform="translate(0,464)" style="font-family: -apple-system, BlinkMacSystemFont, 'Segoe UI', sans-serif; font-size: 12px; fill: rgb(107, 114, 128); fill-opacity: 1; white-space: pre;">0</text></g><g class="y2tick"><text text-anchor="start" x="844.4" y="4.199999999999999" style="font-family: -apple-system, BlinkMacSystemFont, 'Segoe UI', sans-serif; font-size: 12px; fill: rgb(107, 114, 128); fill-opacity: 1; white-space: pre;" transform="translate(0,381.62)">0.5</text></g><g class="y2tick"><text text-anchor="start" x="844.4" y="4.199999999999999" style="font-family: -apple-system, BlinkMacSystemFont, 'Segoe UI', sans-serif; font-size: 12px; fill: rgb(107, 114, 128); fill-opacity: 1; white-space: pre;" transform="translate(0,299.24)">1</text></g><g class="y2tick"><text text-anchor="start" x="844.4" y="4.199999999999999" style="font-family: -apple-system, BlinkMacSystemFont, 'Segoe UI', sans-serif; font-size: 12px; fill: rgb(107, 114, 128); fill-opacity: 1; white-space: pre;" transform="translate(0,216.86)">1.5</text></g><g class="y2tick"><text text-anchor="start" x="844.4" y="4.199999999999999" style="font-family: -apple-system, BlinkMacSystemFont, 'Segoe UI', sans-serif; font-size: 12px; fill: rgb(107, 114, 128); fill-opacity: 1; white-space: pre;" transform="translate(0,134.48)">2</text></g></g></g></g><g class="subplot xy2"/></g><g class="polarlayer"/><g class="smithlayer"/><g class="ternarylayer"/><g class="geolayer"/><g class="funnelarealayer"/><g class="pielayer"/><g class="iciclelayer"/><g class="treemaplayer"/><g class="sunburstlayer"/><g class="glimages"/><defs id="topdefs-d9aa28"><g class="clips"/></defs><g class="layer-above"><g class="imagelayer"/><g class="shapelayer"><g class="shape-group" data-index="0"><path data-index="0" fill-rule="evenodd" d="M 90.94782608695652,463.69107142857143 L 829.0521739130436,463.69107142857143 Q 835.591304347826,463.69107142857143 835.591304347826,458.7482142857143 L 835.591304347826,123.25178571428569 Q 835.591304347826,118.30892857142857 829.0521739130436,118.30892857142857 L 90.94782608695652,118.30892857142857 Q 84.40869565217392,118.30892857142857 84.40869565217392,123.25178571428569 L 84.40869565217392,458.7482142857143 Q 84.40869565217392,463.69107142857143 90.94782608695652,463.69107142857143 Z" style="opacity: 1; stroke: rgb(217, 221, 231); stroke-opacity: 1; fill: rgb(0, 0, 0); fill-opacity: 0; stroke-width: 1px;"/></g><g class="shape-group" data-index="1" clip-path="url(#clipd9aa28x)"><path data-index="1" fill-rule="evenodd" d="M544.78,464L544.78,118" style="opacity: 1; stroke: rgb(154, 161, 173); stroke-opacity: 1; fill: rgb(0, 0, 0); fill-opacity: 0; stroke-dasharray: 9px, 9px; stroke-width: 1px;"/></g></g></g><g class="infolayer"><g class="g-gtitle"/><g class="g-xtitle"><text class="xtitle" x="460" y="511.700390625" text-anchor="middle" style="opacity: 1; font-family: -apple-system, BlinkMacSystemFont, 'Segoe UI', sans-serif; font-size: 14px; fill: rgb(107, 114, 128); fill-opacity: 1; white-space: pre;">DPO step</text></g><g class="g-ytitle"><text class="ytitle" transform="rotate(-90,38.168359375,291)" x="38.168359375" y="291" text-anchor="middle" style="opacity: 1; font-family: -apple-system, BlinkMacSystemFont, 'Segoe UI', sans-serif; font-size: 14px; fill: rgb(107, 114, 128); fill-opacity: 1; white-space: pre;">preference accuracy</text></g><g class="g-y2title"><text class="y2title" transform="rotate(-90,886.403515625,291)" x="886.403515625" y="291" text-anchor="middle" style="opacity: 1; font-family: -apple-system, BlinkMacSystemFont, 'Segoe UI', sans-serif; font-size: 14px; fill: rgb(107, 114, 128); fill-opacity: 1; white-space: pre;">margin</text></g><g class="annotation" data-index="0" style="opacity: 1;"><g class="annotation-text-g" transform="rotate(0,272.16,49.96000000000002)"><g class="cursor-pointer" transform="translate(50,35)"><rect class="bg" x="0.5" y="0.5" width="443" height="29" style="stroke-width: 1px; stroke: rgb(0, 0, 0); stroke-opacity: 0; fill: rgb(0, 0, 0); fill-opacity: 0;"/><text class="annotation-text" text-anchor="middle" x="222.15625" y="23" style="font-family: -apple-system, BlinkMacSystemFont, 'Segoe UI', sans-serif; font-size: 22px; fill: rgb(31, 41, 55); fill-opacity: 1; white-space: pre;"><tspan style="font-weight:bold">Esme-214M-Chat: DPO preference training</tspan></text></g></g></g><g class="annotation" data-index="1" style="opacity: 1;"><g class="annotation-text-g" transform="rotate(0,359.66,81.79)"><g class="cursor-pointer" transform="translate(50,71)"><rect class="bg" x="0.5" y="0.5" width="618" height="20" style="stroke-width: 1px; stroke: rgb(0, 0, 0); stroke-opacity: 0; fill: rgb(0, 0, 0); fill-opacity: 0;"/><text class="annotation-text" text-anchor="middle" x="309.296875" y="16" style="font-family: -apple-system, BlinkMacSystemFont, 'Segoe UI', sans-serif; font-size: 14px; fill: rgb(107, 114, 128); fill-opacity: 1; white-space: pre;">Train preference accuracy and margin over 960 steps - UltraFeedback-binarized pairs, beta 0.5</text></g></g></g><g class="annotation" data-index="2" style="opacity: 1;"><g class="annotation-text-g" transform="rotate(0,353.16,526.48)"><g class="cursor-pointer" transform="translate(50,509)"><rect class="bg" x="0.5" y="0.5" width="605" height="34" style="stroke-width: 1px; stroke: rgb(0, 0, 0); stroke-opacity: 0; fill: rgb(0, 0, 0); fill-opacity: 0;"/><text class="annotation-text" text-anchor="start" x="2" y="14" style="font-family: -apple-system, BlinkMacSystemFont, 'Segoe UI', sans-serif; font-size: 12px; fill: rgb(107, 114, 128); fill-opacity: 1; white-space: pre;"><tspan class="line" dy="0em" x="2" y="14">Conclusion: the preference margin climbs steadily while train accuracy saturates; the accepted checkpoint</tspan><tspan class="line" dy="1.3em" x="2" y="14">is step 600, where held-out preference accuracy peaks at 67.4%.</tspan></text></g></g></g><g class="annotation" data-index="3" style="opacity: 1;"><g class="annotation-text-g" transform="rotate(0,417.28,433.74)"><g class="cursor-pointer" transform="translate(296,424)"><rect class="bg" x="0.5" y="0.5" width="242" height="18" style="stroke-width: 1px; stroke: rgb(0, 0, 0); stroke-opacity: 0; fill: rgb(0, 0, 0); fill-opacity: 0;"/><text class="annotation-text" text-anchor="middle" x="121.4765625" y="14" style="font-family: -apple-system, BlinkMacSystemFont, 'Segoe UI', sans-serif; font-size: 12px; fill: rgb(154, 161, 173); fill-opacity: 1; white-space: pre;">accepted - step 600 (held-out acc 67.4%)</text></g></g></g><g class="annotation" data-index="4" style="opacity: 1;"><g class="annotation-text-g" transform="rotate(0,185.62,155.26)"><g class="cursor-pointer" transform="translate(106,145)"><rect class="bg" x="0.5" y="0.5" width="158" height="19" style="stroke-width: 1px; stroke: rgb(0, 0, 0); stroke-opacity: 0; fill: rgb(0, 0, 0); fill-opacity: 0;"/><text class="annotation-text" text-anchor="middle" x="79.6328125" y="15" style="font-family: -apple-system, BlinkMacSystemFont, 'Segoe UI', sans-serif; font-size: 13px; fill: rgb(99, 110, 250); fill-opacity: 1; white-space: pre;">train preference accuracy</text></g></g></g><g class="annotation" data-index="5" style="opacity: 1;"><g class="annotation-text-g" transform="rotate(0,488.26,357.53999999999996)"><g class="cursor-pointer" transform="translate(416,348)"><rect class="bg" x="0.5" y="0.5" width="144" height="19" style="stroke-width: 1px; stroke: rgb(0, 0, 0); stroke-opacity: 0; fill: rgb(0, 0, 0); fill-opacity: 0;"/><text class="annotation-text" text-anchor="middle" x="72.5390625" y="15" style="font-family: -apple-system, BlinkMacSystemFont, 'Segoe UI', sans-serif; font-size: 13px; fill: rgb(0, 204, 150); fill-opacity: 1; white-space: pre;">train margin (right axis)</text></g></g></g></g></svg>