<svg class="main-svg" xmlns="http://www.w3.org/2000/svg" xmlns:xlink="http://www.w3.org/1999/xlink" width="920" height="560" style="" viewBox="0 0 920 560"><rect x="0" y="0" width="920" height="560" style="fill: rgb(255, 255, 255); fill-opacity: 1;"/><defs id="defs-2f7a63"><g class="clips"><clipPath id="clip2f7a63xyplot" class="plotclip"><rect width="752" height="346"/></clipPath><clipPath class="axesclip" id="clip2f7a63x"><rect x="84" y="0" width="752" height="560"/></clipPath><clipPath class="axesclip" id="clip2f7a63y"><rect x="0" y="118" width="920" height="346"/></clipPath><clipPath class="axesclip" id="clip2f7a63xy"><rect x="84" y="118" width="752" height="346"/></clipPath></g><g class="gradients"/><g class="patterns"/></defs><g class="bglayer"/><g class="layer-below"><g class="imagelayer"/><g class="shapelayer"/></g><g class="cartesianlayer"><g class="subplot xy"><g class="layer-subplot"><g class="shapelayer"/><g class="imagelayer"/></g><g class="minor-gridlayer"><g class="x"/><g class="y"/></g><g class="gridlayer"><g class="x"><path class="xgrid crisp" transform="translate(182.3,0)" d="M0,118v346" style="stroke: rgb(238, 241, 246); stroke-opacity: 1; stroke-width: 1px;"/><path class="xgrid crisp" transform="translate(280.6,0)" d="M0,118v346" style="stroke: rgb(238, 241, 246); stroke-opacity: 1; stroke-width: 1px;"/><path class="xgrid crisp" transform="translate(378.9,0)" d="M0,118v346" style="stroke: rgb(238, 241, 246); stroke-opacity: 1; stroke-width: 1px;"/><path class="xgrid crisp" transform="translate(477.2,0)" d="M0,118v346" style="stroke: rgb(238, 241, 246); stroke-opacity: 1; stroke-width: 1px;"/><path class="xgrid crisp" transform="translate(575.5,0)" d="M0,118v346" style="stroke: rgb(238, 241, 246); stroke-opacity: 1; stroke-width: 1px;"/><path class="xgrid crisp" transform="translate(673.8,0)" d="M0,118v346" style="stroke: rgb(238, 241, 246); stroke-opacity: 1; stroke-width: 1px;"/><path class="xgrid crisp" transform="translate(772.1,0)" d="M0,118v346" style="stroke: rgb(238, 241, 246); stroke-opacity: 1; stroke-width: 1px;"/></g><g class="y"><path class="ygrid crisp" transform="translate(0,445.79)" d="M84,0h752" style="stroke: rgb(238, 241, 246); stroke-opacity: 1; stroke-width: 1px;"/><path class="ygrid crisp" transform="translate(0,354.74)" d="M84,0h752" style="stroke: rgb(238, 241, 246); stroke-opacity: 1; stroke-width: 1px;"/><path class="ygrid crisp" transform="translate(0,263.68)" d="M84,0h752" style="stroke: rgb(238, 241, 246); stroke-opacity: 1; stroke-width: 1px;"/><path class="ygrid crisp" transform="translate(0,172.63)" d="M84,0h752" style="stroke: rgb(238, 241, 246); stroke-opacity: 1; stroke-width: 1px;"/></g></g><g class="zerolinelayer"/><g class="layer-between"><g class="shapelayer"/><g class="imagelayer"/></g><path class="xlines-below"/><path class="ylines-below"/><g class="overlines-below"/><g class="xaxislayer-below"/><g class="yaxislayer-below"/><g class="overaxes-below"/><g class="overplot"><g class="xy" transform="translate(84,118)" clip-path="url(#clip2f7a63xyplot)"><g class="scatterlayer mlayer"><g class="trace scatter traced2b8c5" style="stroke-miterlimit: 2; opacity: 1;"><g class="fills"/><g class="errorbars"/><g class="lines"><path class="js-line" d="M0.1,20.91L0.98,5.82L1.97,60.42L2.95,43.32L3.93,60.23L5.9,86.96L6.88,97.32L7.86,61.27L8.85,71.75L9.83,111.57L10.81,104.08L11.8,133.65L12.78,104.22L14.75,113.18L15.73,125.87L16.71,141.55L17.69,117.83L18.68,98.16L19.66,116.69L20.64,83.95L21.63,104.91L23.59,141.34L24.58,114.33L25.56,82.55L26.54,111.75L27.52,91.75L28.51,90.23L29.49,96.69L30.47,69.96L31.46,79.63L32.44,169.74L34.41,84.05L35.39,112.91L36.37,110.95L37.35,170.89L38.34,132.52L39.32,153.38L40.3,155.04L41.29,118.73L42.27,101.85L43.25,108.74L45.22,171.77L46.2,131.91L47.18,137.33L48.17,122.78L49.15,121.5L50.13,117.55L51.12,139.06L52.1,102.88L53.08,120.35L54.07,99.61L55.05,110.99L56.03,151.86L57.01,155.22L58,99.3L59.96,113.9L60.95,106.64L62.91,159.45L63.9,192.68L65.86,122.39L66.84,97.22L67.83,121.67L68.81,167.39L69.79,184.25L70.78,131.29L71.76,117.67L72.74,172.94L73.73,172.76L74.71,192.13L76.67,76.32L77.66,144.01L78.64,126.51L79.62,144.69L80.61,140.33L81.59,106.1L83.56,174.88L84.54,153.99L85.52,122.64L86.5,139.67L87.49,117.43L88.47,137.76L89.45,141.25L90.44,228.01L92.4,170.88L93.39,200.8L94.37,184.47L95.35,146.06L96.33,171.6L97.32,94.41L98.3,137.5L99.28,96.22L101.25,202.56L102.23,142.23L103.22,172.9L104.2,151.77L105.18,152.54L106.16,208.25L107.15,108.83L108.13,157.97L109.11,148.82L110.1,154.15L111.08,180.64L112.06,171.43L114.03,93.03L115.01,138.97L115.99,132.95L116.98,95.11L118.94,157.34L119.93,95.8L120.91,164.26L121.89,173.45L122.88,135.22L123.86,147.65L124.84,158L125.82,89.88L126.81,155.59L127.79,167.81L128.77,121.02L129.76,185.94L130.74,122.68L131.72,179.86L132.71,122.17L133.69,166.12L134.67,147.82L135.65,177.37L136.64,131.87L137.62,173.56L138.6,127.65L139.59,145.45L140.57,178.46L141.55,182.68L143.52,117.96L144.5,105.87L145.48,107.34L146.47,147.72L147.45,152.22L148.43,144.44L150.4,190.65L151.38,162.29L152.37,192.92L153.35,182.5L154.33,68.82L155.32,175.33L156.3,129.79L157.28,202.71L158.26,132.8L159.25,225.1L161.21,93.7L162.2,192.77L164.16,136.91L165.15,176.91L166.13,173.01L167.11,146.59L168.09,94.96L169.08,114.45L170.06,157.02L171.04,157.3L172.03,165.35L173.01,87.21L173.99,179.72L174.98,103.38L175.96,107.42L176.94,244.63L177.92,135.26L178.91,209.87L179.89,169.04L180.87,198.92L181.86,196.36L182.84,134.36L183.82,157.82L184.81,137.97L185.79,159.82L186.77,136.57L188.74,183.06L189.72,246.15L191.69,125.78L192.67,116.25L193.65,190.37L194.64,127.75L195.62,168.31L196.6,157.56L197.58,174.81L198.57,205.69L199.55,137.94L200.53,175.5L201.52,116.61L202.5,174.07L203.48,152.86L204.47,236.22L206.43,145.06L207.41,162.87L208.4,207.55L209.38,133.03L210.36,211.07L211.35,158.93L212.33,182.78L213.31,152.1L214.3,142.59L215.28,177.12L216.26,128.96L217.24,198.22L218.23,192.41L219.21,149.35L220.19,223.54L221.18,171.28L223.14,123.8L224.13,188L225.11,206.53L226.09,164.6L227.07,167.34L228.06,84.25L229.04,137.64L230.02,144.72L231.01,184.87L231.99,144.04L232.97,187.75L233.96,169.23L234.94,121.11L235.92,133.19L236.9,216.71L237.89,163.73L238.87,205.19L239.85,163.86L240.84,157.04L241.82,141.88L242.8,94.96L243.79,164.2L244.77,139.86L245.75,179.78L246.73,157.28L247.72,151.93L249.68,196.78L250.67,170.07L251.65,156.17L252.63,159.73L253.62,161.95L254.6,147.27L255.58,169.14L256.56,173.83L257.55,149.29L258.53,148.89L259.51,149.05L260.5,198.53L261.48,121.52L262.46,138.7L263.45,176.68L264.43,183.65L266.39,158.1L267.38,182.22L268.36,199.06L269.34,182.94L270.33,128.89L271.31,189.56L272.29,159.33L273.28,188.59L274.26,187.49L275.24,180.98L276.22,143.17L277.21,159.19L279.17,218.13L280.16,181.78L281.14,178.9L282.12,156.96L283.11,164.96L284.09,143.07L285.07,220.64L286.05,135.11L287.04,222.15L288.02,142.82L289,111.71L289.99,191.54L290.97,151.12L291.95,197.57L292.94,195.13L293.92,214.37L294.9,164.55L295.88,192.58L296.87,202.87L297.85,149.37L298.83,187.15L299.82,188.36L300.8,207.51L301.78,155.5L302.77,146.31L303.75,231.32L304.73,77.73L305.72,61.14L306.7,113.4L307.68,209.85L309.65,163.48L310.63,147.95L311.61,123.46L312.6,161.55L313.58,226.12L314.56,223.17L315.55,159.74L316.53,181.62L317.51,135.72L318.49,177.63L319.48,209.05L320.46,189.21L321.44,160.36L322.43,154.65L323.41,154.59L324.39,216.02L325.38,205.52L326.36,155L327.34,174.12L328.32,219.16L329.31,188.46L330.29,185L332.26,221.45L333.24,208.03L334.22,214.93L335.21,215.86L336.19,206.62L337.17,208.32L339.14,154.53L340.12,220.49L342.09,265.74L343.07,200.9L344.05,183.68L345.04,232.28L346.02,161.66L347,209.74L347.98,224.95L348.97,195.62L350.93,156.92L351.92,161.74L353.88,226.53L354.87,224.47L355.85,203.28L356.83,236.28L357.81,186.22L358.8,221.33L359.78,244.44L360.76,177.67L361.75,222.52L362.73,191.33L364.7,233.5L365.68,210.88L366.66,200.69L367.64,174.29L368.63,142.46L369.61,153.74L370.59,211.4L371.58,207.45L373.54,128.27L374.53,174.4L375.51,215.08L376.49,191.86L377.47,171.34L378.46,213.21L379.44,175.77L380.42,237.43L381.41,183.37L382.39,190.79L384.36,202L385.34,163.47L386.32,161.15L387.3,192.64L388.29,205.38L389.27,169.79L390.25,216.66L391.24,175.83L394.19,235.48L395.17,187.48L397.13,249.52L398.12,134.97L400.08,158.21L401.07,229.32L402.05,182.22L403.03,179.98L404.02,174.35L405,207.71L406.96,146.92L407.95,206.3L408.93,192.73L409.91,196.19L410.9,181.37L411.88,210.15L412.86,189.92L413.85,223.88L414.83,220.48L415.81,180.72L416.79,170.12L417.78,237.37L419.74,196.09L420.73,188.36L421.71,171.73L422.69,226.32L423.68,157.57L424.66,168.77L425.64,218.41L426.62,185.41L427.61,158.17L428.59,190.87L430.56,247.24L431.54,231.13L434.49,150.45L435.47,187.21L436.45,160.54L437.44,207.44L438.42,176.06L439.4,205.96L440.39,208.99L441.37,220.41L442.35,216.88L443.34,229.81L444.32,200.34L445.3,212.03L447.27,230.93L448.25,177.25L449.23,185.99L450.22,206.52L451.2,199.4L452.18,231.19L453.17,240.48L454.15,236.37L455.13,197.16L456.12,220.18L458.08,188.15L459.06,195.31L460.05,179.01L461.03,241.49L462.01,167.14L463,248.55L463.98,185.5L464.96,243.29L465.95,155.51L466.93,177.24L467.91,234.1L468.89,210.32L469.88,178.29L470.86,257.4L471.84,209.51L472.83,209.02L473.81,106.45L474.79,170.53L475.78,212.83L476.76,210.7L477.74,216.18L478.72,225.93L479.71,191.89L480.69,197.47L481.67,195.17L482.66,230.6L484.62,219.4L485.61,215.69L486.59,227.98L487.57,194.3L488.55,193.4L489.54,195.3L490.52,214.13L491.5,186.94L492.49,150.16L493.47,215.03L494.45,141.01L495.44,197.22L496.42,210.52L497.4,253.76L498.38,174.35L499.37,201.11L500.35,128.8L501.33,185.23L502.32,248.32L503.3,192.17L504.28,240.03L505.27,179.48L506.25,203.38L507.23,193.54L508.21,170.46L509.2,212.2L510.18,201.01L511.16,199.89L512.15,213.42L513.13,246.69L515.1,173.36L516.08,216.17L517.06,191.49L518.04,239.7L520.01,208.78L520.99,250.31L521.98,207.43L522.96,257.29L523.94,202.37L524.93,241.52L525.91,197.79L526.89,220.26L527.87,177L528.86,213.96L529.84,184.91L530.82,242.62L531.81,187.91L532.79,223.01L534.76,195.66L535.74,163.34L536.72,251.42L537.7,252.14L538.69,239.35L539.67,149.58L540.65,231.63L541.64,209.62L542.62,220.95L543.6,184.72L544.59,259.92L545.57,191.12L547.53,215.63L548.52,221.44L549.5,172.15L550.48,233.61L551.47,219.15L552.45,188.51L553.43,251.55L554.42,192.88L555.4,236.84L556.38,223.72L557.36,191.2L558.35,237.46L559.33,210.32L560.31,209.19L561.3,138.77L562.28,230.25L563.26,161.76L564.25,217.42L565.23,204.41L566.21,216.16L567.19,211.65L568.18,212.78L569.16,199.96L570.14,270.74L571.13,189.66L572.11,205.85L574.08,173.75L575.06,188.09L576.04,195.94L577.02,157.73L578.99,194.1L579.97,206.43L580.96,171.68L581.94,227.77L582.92,193.54L583.91,218.57L584.89,184.82L585.87,252L587.84,179.27L588.82,243.05L589.8,174.71L590.79,221.18L591.77,221.88L592.75,189.58L593.74,250.39L594.72,196.97L595.7,228.62L596.68,197.47L597.67,183.43L598.65,187.41L599.63,190.1L600.62,253.44L603.57,160.28L604.55,223.11L605.53,225.51L606.52,178.31L607.5,134.38L608.48,177.52L609.46,233.5L610.45,212.67L611.43,214.57L612.41,100.23L613.4,119.03L614.38,116.73L615.36,144.38L616.35,246.55L617.33,206.94L618.31,206.98L619.29,215.36L620.28,210.39L621.26,215.18L622.24,200.67L623.23,202.14L624.21,217.79L625.19,247.61L626.18,244.24L627.16,211.19L628.14,204.02L629.12,247.4L630.11,231.88L631.09,241.7L632.07,218.84L633.06,187.43L634.04,207.28L635.02,165.46L636.01,187.22L637.97,234.33L638.95,213.41L639.94,191.46L640.92,210.55L641.9,183.24L642.89,186.16L643.87,207.21L644.85,175.82L645.84,191.04L646.82,254.28L648.78,182.87L649.77,226.49L650.75,216.32L651.73,255.71L652.72,219.19L653.7,222.92L654.68,238.35L655.67,241.38L656.65,204.54L657.63,217.71L659.6,258.3L660.58,229.19L661.56,228.94L662.55,215.69L663.53,224.34L664.51,206.75L665.5,222.97L666.48,199.57L667.46,197.74L668.44,183.78L669.43,187.26L670.41,243.84L671.39,242.56L672.38,191.48L673.36,207.74L674.34,198.89L675.33,197.25L676.31,263.07L677.29,240.59L678.27,278.46L681.22,187.27L682.21,210.87L683.19,265.03L684.17,265L685.16,209.4L686.14,205.5L687.12,248.83L688.1,251.19L689.09,263.01L690.07,193.86L691.05,189.49L692.04,225.32L693.02,210.11L694,220.12L694.99,240.9L695.97,212.04L697.93,247.16L698.92,232.41L699.9,198.23L700.88,206.9L701.87,194.07L702.85,215.05L703.83,213.85L704.82,305.01L706.78,250.79L707.76,274.19L709.73,212.28L710.71,243.36L711.7,175.19L712.68,215.82L713.66,175.73L714.65,237.7L715.63,288.68L716.61,206.56L718.58,257.83L719.56,239.44L720.54,290.51L721.53,184.33L722.51,227.53L723.49,229.64L724.48,226.43L725.46,247.12L726.44,240.13L727.42,193.89L728.41,189.72L729.39,223.86L731.36,174L732.34,223.69L733.32,226.02L734.31,179.12L736.27,263.3L737.25,213.61" style="vector-effect: none; fill: none; stroke: rgb(99, 110, 250); stroke-opacity: 1; stroke-width: 1.6px; opacity: 1;"/></g><g class="points"/><g class="text"/></g><g class="trace scatter tracebd6e0f" style="stroke-miterlimit: 2; opacity: 1;"><g class="fills"/><g class="errorbars"/><g class="lines"><path class="js-line" d="M0,33.36L29.49,120.24L58.98,136.49L88.47,144.59L117.96,149.51L147.45,153.72L176.94,156.96L294.9,165.54L324.39,167.02L353.88,166.61L383.37,166.98L471.84,169.05L501.33,169.8L560.31,171.06L589.8,171.48L619.29,171.84L648.78,169.81L678.27,168.22L707.76,167.69L737.25,167.49" style="vector-effect: none; fill: none; stroke: rgb(0, 204, 150); stroke-opacity: 1; stroke-width: 2.4px; opacity: 1;"/></g><g class="points"><path class="point" transform="translate(0,33.36)" d="M2.5,0A2.5,2.5 0 1,1 0,-2.5A2.5,2.5 0 0,1 2.5,0Z" style="opacity: 1; stroke-width: 0px; fill: rgb(0, 204, 150); fill-opacity: 1;"/><path class="point" transform="translate(29.49,120.24)" d="M2.5,0A2.5,2.5 0 1,1 0,-2.5A2.5,2.5 0 0,1 2.5,0Z" style="opacity: 1; stroke-width: 0px; fill: rgb(0, 204, 150); fill-opacity: 1;"/><path class="point" transform="translate(58.98,136.49)" d="M2.5,0A2.5,2.5 0 1,1 0,-2.5A2.5,2.5 0 0,1 2.5,0Z" style="opacity: 1; stroke-width: 0px; fill: rgb(0, 204, 150); fill-opacity: 1;"/><path class="point" transform="translate(88.47,144.59)" d="M2.5,0A2.5,2.5 0 1,1 0,-2.5A2.5,2.5 0 0,1 2.5,0Z" style="opacity: 1; stroke-width: 0px; fill: rgb(0, 204, 150); fill-opacity: 1;"/><path class="point" transform="translate(117.96,149.51)" d="M2.5,0A2.5,2.5 0 1,1 0,-2.5A2.5,2.5 0 0,1 2.5,0Z" style="opacity: 1; stroke-width: 0px; fill: rgb(0, 204, 150); fill-opacity: 1;"/><path class="point" transform="translate(147.45,153.72)" d="M2.5,0A2.5,2.5 0 1,1 0,-2.5A2.5,2.5 0 0,1 2.5,0Z" style="opacity: 1; stroke-width: 0px; fill: rgb(0, 204, 150); fill-opacity: 1;"/><path class="point" transform="translate(176.94,156.96)" d="M2.5,0A2.5,2.5 0 1,1 0,-2.5A2.5,2.5 0 0,1 2.5,0Z" style="opacity: 1; stroke-width: 0px; fill: rgb(0, 204, 150); fill-opacity: 1;"/><path class="point" transform="translate(206.43,159.13)" d="M2.5,0A2.5,2.5 0 1,1 0,-2.5A2.5,2.5 0 0,1 2.5,0Z" style="opacity: 1; stroke-width: 0px; fill: rgb(0, 204, 150); fill-opacity: 1;"/><path class="point" transform="translate(235.92,161.77)" d="M2.5,0A2.5,2.5 0 1,1 0,-2.5A2.5,2.5 0 0,1 2.5,0Z" style="opacity: 1; stroke-width: 0px; fill: rgb(0, 204, 150); fill-opacity: 1;"/><path class="point" transform="translate(265.41,163.79)" d="M2.5,0A2.5,2.5 0 1,1 0,-2.5A2.5,2.5 0 0,1 2.5,0Z" style="opacity: 1; stroke-width: 0px; fill: rgb(0, 204, 150); fill-opacity: 1;"/><path class="point" transform="translate(294.9,165.54)" d="M2.5,0A2.5,2.5 0 1,1 0,-2.5A2.5,2.5 0 0,1 2.5,0Z" style="opacity: 1; stroke-width: 0px; fill: rgb(0, 204, 150); fill-opacity: 1;"/><path class="point" transform="translate(324.39,167.02)" d="M2.5,0A2.5,2.5 0 1,1 0,-2.5A2.5,2.5 0 0,1 2.5,0Z" style="opacity: 1; stroke-width: 0px; fill: rgb(0, 204, 150); fill-opacity: 1;"/><path class="point" transform="translate(353.88,166.61)" d="M2.5,0A2.5,2.5 0 1,1 0,-2.5A2.5,2.5 0 0,1 2.5,0Z" style="opacity: 1; stroke-width: 0px; fill: rgb(0, 204, 150); fill-opacity: 1;"/><path class="point" transform="translate(383.37,166.98)" d="M2.5,0A2.5,2.5 0 1,1 0,-2.5A2.5,2.5 0 0,1 2.5,0Z" style="opacity: 1; stroke-width: 0px; fill: rgb(0, 204, 150); fill-opacity: 1;"/><path class="point" transform="translate(412.86,167.46)" d="M2.5,0A2.5,2.5 0 1,1 0,-2.5A2.5,2.5 0 0,1 2.5,0Z" style="opacity: 1; stroke-width: 0px; fill: rgb(0, 204, 150); fill-opacity: 1;"/><path class="point" transform="translate(442.35,168.11)" d="M2.5,0A2.5,2.5 0 1,1 0,-2.5A2.5,2.5 0 0,1 2.5,0Z" style="opacity: 1; stroke-width: 0px; fill: rgb(0, 204, 150); fill-opacity: 1;"/><path class="point" transform="translate(471.84,169.05)" d="M2.5,0A2.5,2.5 0 1,1 0,-2.5A2.5,2.5 0 0,1 2.5,0Z" style="opacity: 1; stroke-width: 0px; fill: rgb(0, 204, 150); fill-opacity: 1;"/><path class="point" transform="translate(501.33,169.8)" d="M2.5,0A2.5,2.5 0 1,1 0,-2.5A2.5,2.5 0 0,1 2.5,0Z" style="opacity: 1; stroke-width: 0px; fill: rgb(0, 204, 150); fill-opacity: 1;"/><path class="point" transform="translate(530.82,170.7)" d="M2.5,0A2.5,2.5 0 1,1 0,-2.5A2.5,2.5 0 0,1 2.5,0Z" style="opacity: 1; stroke-width: 0px; fill: rgb(0, 204, 150); fill-opacity: 1;"/><path class="point" transform="translate(560.31,171.06)" d="M2.5,0A2.5,2.5 0 1,1 0,-2.5A2.5,2.5 0 0,1 2.5,0Z" style="opacity: 1; stroke-width: 0px; fill: rgb(0, 204, 150); fill-opacity: 1;"/><path class="point" transform="translate(589.8,171.48)" d="M2.5,0A2.5,2.5 0 1,1 0,-2.5A2.5,2.5 0 0,1 2.5,0Z" style="opacity: 1; stroke-width: 0px; fill: rgb(0, 204, 150); fill-opacity: 1;"/><path class="point" transform="translate(619.29,171.84)" d="M2.5,0A2.5,2.5 0 1,1 0,-2.5A2.5,2.5 0 0,1 2.5,0Z" style="opacity: 1; stroke-width: 0px; fill: rgb(0, 204, 150); fill-opacity: 1;"/><path class="point" transform="translate(648.78,169.81)" d="M2.5,0A2.5,2.5 0 1,1 0,-2.5A2.5,2.5 0 0,1 2.5,0Z" style="opacity: 1; stroke-width: 0px; fill: rgb(0, 204, 150); fill-opacity: 1;"/><path class="point" transform="translate(678.27,168.22)" d="M2.5,0A2.5,2.5 0 1,1 0,-2.5A2.5,2.5 0 0,1 2.5,0Z" style="opacity: 1; stroke-width: 0px; fill: rgb(0, 204, 150); fill-opacity: 1;"/><path class="point" transform="translate(707.76,167.69)" d="M2.5,0A2.5,2.5 0 1,1 0,-2.5A2.5,2.5 0 0,1 2.5,0Z" style="opacity: 1; stroke-width: 0px; fill: rgb(0, 204, 150); fill-opacity: 1;"/><path class="point" transform="translate(737.25,167.49)" d="M2.5,0A2.5,2.5 0 1,1 0,-2.5A2.5,2.5 0 0,1 2.5,0Z" style="opacity: 1; stroke-width: 0px; fill: rgb(0, 204, 150); fill-opacity: 1;"/></g><g class="text"/></g></g></g></g><g class="zerolinelayer-above"/><path class="xlines-above crisp" d="M83,464.5H836" style="fill: none; stroke-width: 1px; stroke: rgb(207, 213, 223); stroke-opacity: 1;"/><path class="ylines-above crisp" d="M83.5,118V464" style="fill: none; stroke-width: 1px; stroke: rgb(207, 213, 223); stroke-opacity: 1;"/><g class="overlines-above"/><g class="xaxislayer-above"><path class="xtick ticks crisp" d="M0,465v5" transform="translate(84,0)" style="stroke: rgb(207, 213, 223); stroke-opacity: 1; stroke-width: 1px;"/><path class="xtick ticks crisp" d="M0,465v5" transform="translate(182.3,0)" style="stroke: rgb(207, 213, 223); stroke-opacity: 1; stroke-width: 1px;"/><path class="xtick ticks crisp" d="M0,465v5" transform="translate(280.6,0)" style="stroke: rgb(207, 213, 223); stroke-opacity: 1; stroke-width: 1px;"/><path class="xtick ticks crisp" d="M0,465v5" transform="translate(378.9,0)" style="stroke: rgb(207, 213, 223); stroke-opacity: 1; stroke-width: 1px;"/><path class="xtick ticks crisp" d="M0,465v5" transform="translate(477.2,0)" style="stroke: rgb(207, 213, 223); stroke-opacity: 1; stroke-width: 1px;"/><path class="xtick ticks crisp" d="M0,465v5" transform="translate(575.5,0)" style="stroke: rgb(207, 213, 223); stroke-opacity: 1; stroke-width: 1px;"/><path class="xtick ticks crisp" d="M0,465v5" transform="translate(673.8,0)" style="stroke: rgb(207, 213, 223); stroke-opacity: 1; stroke-width: 1px;"/><path class="xtick ticks crisp" d="M0,465v5" transform="translate(772.1,0)" style="stroke: rgb(207, 213, 223); stroke-opacity: 1; stroke-width: 1px;"/><g class="xtick"><text text-anchor="middle" x="0" y="484.4" transform="translate(84,0)" style="font-family: -apple-system, BlinkMacSystemFont, 'Segoe UI', sans-serif; font-size: 12px; fill: rgb(107, 114, 128); fill-opacity: 1; white-space: pre;">0</text></g><g class="xtick"><text text-anchor="middle" x="0" y="484.4" style="font-family: -apple-system, BlinkMacSystemFont, 'Segoe UI', sans-serif; font-size: 12px; fill: rgb(107, 114, 128); fill-opacity: 1; white-space: pre;" transform="translate(182.3,0)">1000</text></g><g class="xtick"><text text-anchor="middle" x="0" y="484.4" style="font-family: -apple-system, BlinkMacSystemFont, 'Segoe UI', sans-serif; font-size: 12px; fill: rgb(107, 114, 128); fill-opacity: 1; white-space: pre;" transform="translate(280.6,0)">2000</text></g><g class="xtick"><text text-anchor="middle" x="0" y="484.4" style="font-family: -apple-system, BlinkMacSystemFont, 'Segoe UI', sans-serif; font-size: 12px; fill: rgb(107, 114, 128); fill-opacity: 1; white-space: pre;" transform="translate(378.9,0)">3000</text></g><g class="xtick"><text text-anchor="middle" x="0" y="484.4" style="font-family: -apple-system, BlinkMacSystemFont, 'Segoe UI', sans-serif; font-size: 12px; fill: rgb(107, 114, 128); fill-opacity: 1; white-space: pre;" transform="translate(477.2,0)">4000</text></g><g class="xtick"><text text-anchor="middle" x="0" y="484.4" style="font-family: -apple-system, BlinkMacSystemFont, 'Segoe UI', sans-serif; font-size: 12px; fill: rgb(107, 114, 128); fill-opacity: 1; white-space: pre;" transform="translate(575.5,0)">5000</text></g><g class="xtick"><text text-anchor="middle" x="0" y="484.4" style="font-family: -apple-system, BlinkMacSystemFont, 'Segoe UI', sans-serif; font-size: 12px; fill: rgb(107, 114, 128); fill-opacity: 1; white-space: pre;" transform="translate(673.8,0)">6000</text></g><g class="xtick"><text text-anchor="middle" x="0" y="484.4" style="font-family: -apple-system, BlinkMacSystemFont, 'Segoe UI', sans-serif; font-size: 12px; fill: rgb(107, 114, 128); fill-opacity: 1; white-space: pre;" transform="translate(772.1,0)">7000</text></g></g><g class="yaxislayer-above"><path class="ytick ticks crisp" d="M83,0h-5" transform="translate(0,445.79)" style="stroke: rgb(207, 213, 223); stroke-opacity: 1; stroke-width: 1px;"/><path class="ytick ticks crisp" d="M83,0h-5" transform="translate(0,354.74)" style="stroke: rgb(207, 213, 223); stroke-opacity: 1; stroke-width: 1px;"/><path class="ytick ticks crisp" d="M83,0h-5" transform="translate(0,263.68)" style="stroke: rgb(207, 213, 223); stroke-opacity: 1; stroke-width: 1px;"/><path class="ytick ticks crisp" d="M83,0h-5" transform="translate(0,172.63)" style="stroke: rgb(207, 213, 223); stroke-opacity: 1; stroke-width: 1px;"/><g class="ytick"><text text-anchor="end" x="75.6" y="4.199999999999999" transform="translate(0,445.79)" style="font-family: -apple-system, BlinkMacSystemFont, 'Segoe UI', sans-serif; font-size: 12px; fill: rgb(107, 114, 128); fill-opacity: 1; white-space: pre;">0.5</text></g><g class="ytick"><text text-anchor="end" x="75.6" y="4.199999999999999" style="font-family: -apple-system, BlinkMacSystemFont, 'Segoe UI', sans-serif; font-size: 12px; fill: rgb(107, 114, 128); fill-opacity: 1; white-space: pre;" transform="translate(0,354.74)">1</text></g><g class="ytick"><text text-anchor="end" x="75.6" y="4.199999999999999" style="font-family: -apple-system, BlinkMacSystemFont, 'Segoe UI', sans-serif; font-size: 12px; fill: rgb(107, 114, 128); fill-opacity: 1; white-space: pre;" transform="translate(0,263.68)">1.5</text></g><g class="ytick"><text text-anchor="end" x="75.6" y="4.199999999999999" style="font-family: -apple-system, BlinkMacSystemFont, 'Segoe UI', sans-serif; font-size: 12px; fill: rgb(107, 114, 128); fill-opacity: 1; white-space: pre;" transform="translate(0,172.63)">2</text></g></g><g class="overaxes-above"/></g></g><g class="polarlayer"/><g class="smithlayer"/><g class="ternarylayer"/><g class="geolayer"/><g class="funnelarealayer"/><g class="pielayer"/><g class="iciclelayer"/><g class="treemaplayer"/><g class="sunburstlayer"/><g class="glimages"/><defs id="topdefs-2f7a63"><g class="clips"/></defs><g class="layer-above"><g class="imagelayer"/><g class="shapelayer"><g class="shape-group" data-index="0"><path data-index="0" fill-rule="evenodd" d="M 90.94782608695652,463.69107142857143 L 829.0521739130436,463.69107142857143 Q 835.591304347826,463.69107142857143 835.591304347826,458.7482142857143 L 835.591304347826,123.25178571428569 Q 835.591304347826,118.30892857142857 829.0521739130436,118.30892857142857 L 90.94782608695652,118.30892857142857 Q 84.40869565217392,118.30892857142857 84.40869565217392,123.25178571428569 L 84.40869565217392,458.7482142857143 Q 84.40869565217392,463.69107142857143 90.94782608695652,463.69107142857143 Z" style="opacity: 1; stroke: rgb(217, 221, 231); stroke-opacity: 1; fill: rgb(0, 0, 0); fill-opacity: 0; stroke-width: 1px;"/></g><g class="shape-group" data-index="1" clip-path="url(#clip2f7a63x)"><path data-index="1" fill-rule="evenodd" d="M703.29,464L703.29,118" style="opacity: 1; stroke: rgb(154, 161, 173); stroke-opacity: 1; fill: rgb(0, 0, 0); fill-opacity: 0; stroke-dasharray: 9px, 9px; stroke-width: 1px;"/></g></g></g><g class="infolayer"><g class="g-gtitle"/><g class="g-xtitle"><text class="xtitle" x="460" y="511.700390625" text-anchor="middle" style="opacity: 1; font-family: -apple-system, BlinkMacSystemFont, 'Segoe UI', sans-serif; font-size: 14px; fill: rgb(107, 114, 128); fill-opacity: 1; white-space: pre;">SFT step</text></g><g class="g-ytitle"><text class="ytitle" transform="rotate(-90,38.496484375,291)" x="38.496484375" y="291" text-anchor="middle" style="opacity: 1; font-family: -apple-system, BlinkMacSystemFont, 'Segoe UI', sans-serif; font-size: 14px; fill: rgb(107, 114, 128); fill-opacity: 1; white-space: pre;">loss</text></g><g class="annotation" data-index="0" style="opacity: 1;"><g class="annotation-text-g" transform="rotate(0,239.16,49.96000000000002)"><g class="cursor-pointer" transform="translate(50,35)"><rect class="bg" x="0.5" y="0.5" width="377" height="29" style="stroke-width: 1px; stroke: rgb(0, 0, 0); stroke-opacity: 0; fill: rgb(0, 0, 0); fill-opacity: 0;"/><text class="annotation-text" text-anchor="middle" x="188.9921875" y="23" style="font-family: -apple-system, BlinkMacSystemFont, 'Segoe UI', sans-serif; font-size: 22px; fill: rgb(31, 41, 55); fill-opacity: 1; white-space: pre;"><tspan style="font-weight:bold">Esme-214M-Instruct: multi-turn SFT</tspan></text></g></g></g><g class="annotation" data-index="1" style="opacity: 1;"><g class="annotation-text-g" transform="rotate(0,418.66,81.79000000000002)"><g class="cursor-pointer" transform="translate(50,71)"><rect class="bg" x="0.5" y="0.5" width="736" height="20" style="stroke-width: 1px; stroke: rgb(0, 0, 0); stroke-opacity: 0; fill: rgb(0, 0, 0); fill-opacity: 0;"/><text class="annotation-text" text-anchor="middle" x="368.578125" y="16" style="font-family: -apple-system, BlinkMacSystemFont, 'Segoe UI', sans-serif; font-size: 14px; fill: rgb(107, 114, 128); fill-opacity: 1; white-space: pre;">Train loss and held-out response loss over 7500 steps - smol-smoltalk + tulu-3-personas, from Esme-214M-Base</text></g></g></g><g class="annotation" data-index="2" style="opacity: 1;"><g class="annotation-text-g" transform="rotate(0,298.16,526.48)"><g class="cursor-pointer" transform="translate(50,509)"><rect class="bg" x="0.5" y="0.5" width="495" height="34" style="stroke-width: 1px; stroke: rgb(0, 0, 0); stroke-opacity: 0; fill: rgb(0, 0, 0); fill-opacity: 0;"/><text class="annotation-text" text-anchor="start" x="2" y="14" style="font-family: -apple-system, BlinkMacSystemFont, 'Segoe UI', sans-serif; font-size: 12px; fill: rgb(107, 114, 128); fill-opacity: 1; white-space: pre;"><tspan class="line" dy="0em" x="2" y="14">Conclusion: held-out response loss bottoms at 1.36 on step 6300 and rises afterwards;</tspan><tspan class="line" dy="1.3em" x="2" y="14">early stopping restores that checkpoint, not the final step.</tspan></text></g></g></g><g class="annotation" data-index="3" style="opacity: 1;"><g class="annotation-text-g" transform="rotate(0,574.79,137.88)"><g class="cursor-pointer" transform="translate(452,128)"><rect class="bg" x="0.5" y="0.5" width="244" height="18" style="stroke-width: 1px; stroke: rgb(0, 0, 0); stroke-opacity: 0; fill: rgb(0, 0, 0); fill-opacity: 0;"/><text class="annotation-text" text-anchor="middle" x="122.53125" y="14" style="font-family: -apple-system, BlinkMacSystemFont, 'Segoe UI', sans-serif; font-size: 12px; fill: rgb(154, 161, 173); fill-opacity: 1; white-space: pre;">accepted - step 6300 (response loss 1.36)</text></g></g></g><g class="annotation" data-index="4" style="opacity: 1;"><g class="annotation-text-g" transform="rotate(0,334.68,163.53)"><g class="cursor-pointer" transform="translate(305,154)"><rect class="bg" x="0.5" y="0.5" width="58" height="19" style="stroke-width: 1px; stroke: rgb(0, 0, 0); stroke-opacity: 0; fill: rgb(0, 0, 0); fill-opacity: 0;"/><text class="annotation-text" text-anchor="middle" x="29.5" y="15" style="font-family: -apple-system, BlinkMacSystemFont, 'Segoe UI', sans-serif; font-size: 13px; fill: rgb(99, 110, 250); fill-opacity: 1; white-space: pre;">train loss</text></g></g></g><g class="annotation" data-index="5" style="opacity: 1;"><g class="annotation-text-g" transform="rotate(0,413.54,423.94)"><g class="cursor-pointer" transform="translate(342,414)"><rect class="bg" x="0.5" y="0.5" width="142" height="19" style="stroke-width: 1px; stroke: rgb(0, 0, 0); stroke-opacity: 0; fill: rgb(0, 0, 0); fill-opacity: 0;"/><text class="annotation-text" text-anchor="middle" x="71.4921875" y="15" style="font-family: -apple-system, BlinkMacSystemFont, 'Segoe UI', sans-serif; font-size: 13px; fill: rgb(0, 204, 150); fill-opacity: 1; white-space: pre;">held-out response loss</text></g></g></g></g></svg>