<svg class="main-svg" xmlns="http://www.w3.org/2000/svg" xmlns:xlink="http://www.w3.org/1999/xlink" width="920" height="560" style="" viewBox="0 0 920 560"><rect x="0" y="0" width="920" height="560" style="fill: rgb(255, 255, 255); fill-opacity: 1;"/><defs id="defs-8ce831"><g class="clips"><clipPath id="clip8ce831xyplot" class="plotclip"><rect width="752" height="346"/></clipPath><clipPath class="axesclip" id="clip8ce831x"><rect x="84" y="0" width="752" height="560"/></clipPath><clipPath class="axesclip" id="clip8ce831y"><rect x="0" y="118" width="920" height="346"/></clipPath><clipPath class="axesclip" id="clip8ce831xy"><rect x="84" y="118" width="752" height="346"/></clipPath></g><g class="gradients"/><g class="patterns"/></defs><g class="bglayer"/><g class="layer-below"><g class="imagelayer"/><g class="shapelayer"/></g><g class="cartesianlayer"><g class="subplot xy"><g class="layer-subplot"><g class="shapelayer"/><g class="imagelayer"/></g><g class="minor-gridlayer"><g class="x"/><g class="y"/></g><g class="gridlayer"><g class="x"><path class="xgrid crisp" transform="translate(237.59,0)" d="M0,118v346" style="stroke: rgb(238, 241, 246); stroke-opacity: 1; stroke-width: 1px;"/><path class="xgrid crisp" transform="translate(391.19,0)" d="M0,118v346" style="stroke: rgb(238, 241, 246); stroke-opacity: 1; stroke-width: 1px;"/><path class="xgrid crisp" transform="translate(544.78,0)" d="M0,118v346" style="stroke: rgb(238, 241, 246); stroke-opacity: 1; stroke-width: 1px;"/><path class="xgrid crisp" transform="translate(698.38,0)" d="M0,118v346" style="stroke: rgb(238, 241, 246); stroke-opacity: 1; stroke-width: 1px;"/></g><g class="y"><path class="ygrid crisp" transform="translate(0,457.93)" d="M84,0h752" style="stroke: rgb(238, 241, 246); stroke-opacity: 1; stroke-width: 1px;"/><path class="ygrid crisp" transform="translate(0,382.05)" d="M84,0h752" style="stroke: rgb(238, 241, 246); stroke-opacity: 1; stroke-width: 1px;"/><path class="ygrid crisp" transform="translate(0,306.18)" d="M84,0h752" style="stroke: rgb(238, 241, 246); stroke-opacity: 1; stroke-width: 1px;"/><path class="ygrid crisp" transform="translate(0,230.3)" d="M84,0h752" style="stroke: rgb(238, 241, 246); stroke-opacity: 1; stroke-width: 1px;"/><path class="ygrid crisp" transform="translate(0,154.42000000000002)" d="M84,0h752" style="stroke: rgb(238, 241, 246); stroke-opacity: 1; stroke-width: 1px;"/></g></g><g class="zerolinelayer"/><g class="layer-between"><g class="shapelayer"/><g class="imagelayer"/></g><path class="xlines-below"/><path class="ylines-below"/><g class="overlines-below"/><g class="xaxislayer-below"/><g class="yaxislayer-below"/><g class="overaxes-below"/><g class="overplot"><g class="xy" transform="translate(84,118)" clip-path="url(#clip8ce831xyplot)"><g class="scatterlayer mlayer"><g class="trace scatter trace153460" style="stroke-miterlimit: 2;"><g class="fills"><g><path class="js-fill" d="M3.07,348.54L6.14,358.14L9.22,358.04L12.29,375.57L15.36,347.94L18.43,356.93L21.5,348.97L27.65,366.31L30.72,365.52L33.79,378.67L36.86,345.43L39.93,346.03L43.01,370.68L46.08,350.9L49.15,357.58L52.22,372.5L55.29,349.76L58.37,370.95L61.44,348.17L64.51,352.77L67.58,371.5L70.65,368.13L73.73,370.71L76.8,365.85L79.87,372.53L82.94,361.9L86.01,372.05L92.16,365.03L95.23,358.98L98.3,384.07L101.37,372.2L104.44,350.85L107.52,352.05L110.59,366.38L113.66,350.7L116.73,367.37L119.8,354.97L122.88,357.66L125.95,362.36L129.02,363.59L132.09,355.66L135.16,358.16L138.24,347.8L141.31,331.66L144.38,344.96L147.45,348.41L150.52,339.06L153.59,331.23L156.67,317.77L159.74,339.29L162.81,331.33L165.88,332.64L168.95,325.32L172.03,310.97L175.1,310.06L178.17,327.87L181.24,321.72L187.39,326.26L190.46,305.78L193.53,282.54L196.6,293.13L199.67,314.74L202.75,296.03L205.82,275.72L208.89,281.82L211.96,273.86L215.03,309.38L218.1,312.24L221.18,274.86L224.25,286.26L227.32,280.47L233.46,298.31L236.54,275.57L239.61,296.69L242.68,280.81L245.75,280.58L248.82,294.35L251.9,273.67L254.97,258.92L258.04,228.66L261.11,277.55L264.18,274.86L267.25,273.48L273.4,266.24L276.47,270.71L279.54,280.14L282.61,256.43L285.69,263.73L288.76,259.06L291.83,287.42L294.9,262.13L297.97,260.92L301.05,282.58L304.12,280.33L307.19,246.07L310.26,236.19L313.33,267.49L316.41,254.62L319.48,263.34L322.55,251.75L325.62,258.77L328.69,233.33L331.76,272.42L334.84,254.97L337.91,270.23L340.98,261.04L344.05,265.52L347.12,275.95L350.2,270.62L353.27,248.07L356.34,252.6L359.41,273.06L362.48,281.71L365.56,253.51L368.63,262.32L371.7,225.38L374.77,254.64L377.84,244.3L380.92,257.95L383.99,262.37L387.06,224.52L390.13,274.15L393.2,241.03L396.27,254.32L399.35,235.08L402.42,242.18L405.49,262.09L408.56,242.32L411.63,258.64L414.71,256.96L417.78,261.42L420.85,241.06L423.92,236.1L426.99,250.27L430.07,255.53L433.14,254.73L436.21,235.69L439.28,246.5L442.35,213.43L448.5,263.69L451.57,244.75L454.64,242.66L457.71,258.17L460.78,265.33L463.86,259.04L466.93,251.27L470,264.78L473.07,247.55L476.14,264.62L479.22,254.59L482.29,249.98L485.36,242.1L488.43,214.29L491.5,259.12L494.58,234.07L497.65,253.17L500.72,241.66L503.79,252.79L506.86,255.51L509.93,246.03L513.01,244.23L516.08,238.54L519.15,235.9L522.22,249.81L525.29,239.53L528.37,252.05L531.44,270.22L534.51,262.26L537.58,240.65L540.65,239.03L543.73,266.39L546.8,246.64L549.87,256.48L552.94,247.4L556.01,240.85L559.08,218.78L562.16,258.3L565.23,258.88L568.3,256.95L571.37,243.1L574.44,269.69L577.52,257.26L580.59,260.68L586.73,243.7L589.8,257.11L592.88,272.77L595.95,249.62L599.02,256.83L602.09,224.13L605.16,256.23L608.24,247.82L614.38,251.7L617.45,216.65L620.52,263.16L623.59,243.32L626.67,236.34L629.74,239.49L632.81,237.68L635.88,260.16L638.95,233.85L642.03,246.21L645.1,248.99L648.17,257.53L651.24,239.32L654.31,230.59L657.39,244.62L660.46,246.63L663.53,242.81L666.6,224.55L669.67,241.8L672.75,220.67L675.82,235.25L678.89,256.74L681.96,230.18L685.03,242.44L688.1,251.71L691.18,258.04L694.25,253.33L697.32,250.8L700.39,263.96L703.46,245.24L706.54,265.34L709.61,246.46L712.68,243.59L715.75,242.79L718.82,210.19L721.9,250.25L724.97,244.03L728.04,252.21L731.11,238.29L734.18,236.6L737.25,251.15L737.25,174.71L734.18,123.3L731.11,179.84L728.04,184.3L724.97,86.28L721.9,121.18L718.82,36.16L715.75,59.2L712.68,176.64L709.61,63.17L706.54,131.48L703.46,85.29L700.39,93L697.32,88.11L694.25,183.59L691.18,130.83L688.1,90.94L685.03,84.5L681.96,172.73L678.89,196.39L675.82,81.45L672.75,56L669.67,118.01L666.6,166.9L663.53,121.62L660.46,62.43L657.39,86.7L654.31,120.69L651.24,122.9L648.17,181.93L645.1,84.84L642.03,191.93L638.95,115.09L635.88,93.79L632.81,113.12L629.74,83.73L626.67,85.62L623.59,165.61L620.52,129.92L617.45,180.39L614.38,191.04L611.31,121.82L608.24,89.08L605.16,127.55L602.09,33.96L599.02,91.81L595.95,87L592.88,142.59L589.8,124.68L586.73,58.25L580.59,129.74L577.52,125.33L574.44,129.26L571.37,86.79L568.3,124.32L565.23,178.5L562.16,123.18L559.08,55.81L556.01,121.16L552.94,115.09L549.87,121.41L546.8,88.53L543.73,124.01L540.65,88.7L537.58,115.77L534.51,129.19L531.44,127.91L528.37,120.52L525.29,180.78L522.22,123.64L519.15,85.48L516.08,84.07L513.01,86.73L509.93,118.44L506.86,173.71L503.79,124.44L500.72,179.26L497.65,179.63L494.58,85.57L491.5,125.79L488.43,40.14L485.36,61.21L482.29,175.32L479.22,66.52L476.14,128.24L473.07,87.28L470,93.06L466.93,88.46L463.86,183.73L460.78,130.57L457.71,91.93L454.64,84.34L451.57,173.17L448.5,195.4L445.42,86.87L442.35,57.42L439.28,117.64L436.21,163.13L430.07,61.6L426.99,84.26L423.92,119.54L420.85,122.02L417.78,182.69L414.71,84.87L411.63,188.48L408.56,115.8L405.49,91.94L402.42,112.14L399.35,82.81L396.27,87.85L393.2,166.64L390.13,132.03L387.06,175.61L383.99,189.09L380.92,121.1L377.84,83.54L374.77,127.56L371.7,35.42L368.63,93.44L365.56,89.26L362.48,145.7L359.41,129.78L356.34,61.24L353.27,90.63L350.2,135.14L347.12,130.56L344.05,132.44L340.98,87.71L337.91,127.82L334.84,178.13L331.76,128.24L328.69,51.87L325.62,122.64L322.55,117.1L319.48,121.94L316.41,85.9L313.33,123.97L310.26,86.97L307.19,115.49L304.12,130.73L301.05,138.05L297.97,116.99L294.9,177.66L291.83,126.69L288.76,90L285.69,84.77L282.61,87.93L279.54,124.3L276.47,173.41L273.4,129.11L270.33,179.88L267.25,180.62L264.18,90.95L261.11,131.8L258.04,37.56L254.97,63.21L251.9,171.71L248.82,97L245.75,132.26L242.68,93.67L239.61,101.62L236.54,94.82L233.46,189.54L230.39,149.66L227.32,93.7L224.25,106.88L221.18,171.77L218.1,210.63L215.03,100.59L211.96,74.56L205.82,164.1L202.75,123.62L199.67,94.82L196.6,93.53L193.53,116.75L190.46,129.32L187.39,214.22L184.31,116.53L181.24,212.74L178.17,154.03L175.1,119.69L172.03,141.93L168.95,114.31L165.88,122.42L162.81,188.26L159.74,178.13L156.67,189.72L153.59,221.91L150.52,156.67L147.45,140.4L144.38,190.64L141.31,101.28L138.24,142.61L135.16,169.35L132.09,214.12L129.02,207.09L125.95,118.44L122.88,168.13L119.8,197.5L116.73,214.42L113.66,186.5L110.59,180.37L107.52,253.38L104.44,250.09L101.37,230.72L98.3,201.16L95.23,214.71L92.16,245.03L89.08,229.33L86.01,253.97L82.94,247.18L79.87,222.58L76.8,268.13L73.73,245.07L70.65,263.56L67.58,244.58L64.51,287.36L61.44,297.3L58.37,244.88L55.29,296.12L52.22,266.06L49.15,277.84L46.08,294.33L43.01,257.07L39.93,313.64L36.86,310.77L33.79,244.95L30.72,289.16L27.65,279.67L24.58,283.93L21.5,306.62L18.43,296.77L15.36,308.69L12.29,268.68L9.22,287.87L6.14,290.13L3.07,311.82Z" style="fill: rgb(99, 110, 250); fill-opacity: 0.16; stroke-width: 0;"/></g></g><g class="errorbars"/><g class="lines"><path class="js-line" d="M3.07,311.82L6.14,290.13L9.22,287.87L12.29,268.68L15.36,308.69L18.43,296.77L21.5,306.62L24.58,283.93L27.65,279.67L30.72,289.16L33.79,244.95L36.86,310.77L39.93,313.64L43.01,257.07L46.08,294.33L49.15,277.84L52.22,266.06L55.29,296.12L58.37,244.88L61.44,297.3L64.51,287.36L67.58,244.58L70.65,263.56L73.73,245.07L76.8,268.13L79.87,222.58L82.94,247.18L86.01,253.97L89.08,229.33L92.16,245.03L95.23,214.71L98.3,201.16L101.37,230.72L104.44,250.09L107.52,253.38L110.59,180.37L113.66,186.5L116.73,214.42L119.8,197.5L122.88,168.13L125.95,118.44L129.02,207.09L132.09,214.12L135.16,169.35L138.24,142.61L141.31,101.28L144.38,190.64L147.45,140.4L150.52,156.67L153.59,221.91L156.67,189.72L159.74,178.13L162.81,188.26L165.88,122.42L168.95,114.31L172.03,141.93L175.1,119.69L178.17,154.03L181.24,212.74L184.31,116.53L187.39,214.22L190.46,129.32L193.53,116.75L196.6,93.53L199.67,94.82L202.75,123.62L205.82,164.1L211.96,74.56L215.03,100.59L218.1,210.63L221.18,171.77L224.25,106.88L227.32,93.7L230.39,149.66L233.46,189.54L236.54,94.82L239.61,101.62L242.68,93.67L245.75,132.26L248.82,97L251.9,171.71L254.97,63.21L258.04,37.56L261.11,131.8L264.18,90.95L267.25,180.62L270.33,179.88L273.4,129.11L276.47,173.41L279.54,124.3L282.61,87.93L285.69,84.77L288.76,90L291.83,126.69L294.9,177.66L297.97,116.99L301.05,138.05L304.12,130.73L307.19,115.49L310.26,86.97L313.33,123.97L316.41,85.9L319.48,121.94L322.55,117.1L325.62,122.64L328.69,51.87L331.76,128.24L334.84,178.13L337.91,127.82L340.98,87.71L344.05,132.44L347.12,130.56L350.2,135.14L353.27,90.63L356.34,61.24L359.41,129.78L362.48,145.7L365.56,89.26L368.63,93.44L371.7,35.42L374.77,127.56L377.84,83.54L380.92,121.1L383.99,189.09L387.06,175.61L390.13,132.03L393.2,166.64L396.27,87.85L399.35,82.81L402.42,112.14L405.49,91.94L408.56,115.8L411.63,188.48L414.71,84.87L417.78,182.69L420.85,122.02L423.92,119.54L426.99,84.26L430.07,61.6L436.21,163.13L439.28,117.64L442.35,57.42L445.42,86.87L448.5,195.4L451.57,173.17L454.64,84.34L457.71,91.93L460.78,130.57L463.86,183.73L466.93,88.46L470,93.06L473.07,87.28L476.14,128.24L479.22,66.52L482.29,175.32L485.36,61.21L488.43,40.14L491.5,125.79L494.58,85.57L497.65,179.63L500.72,179.26L503.79,124.44L506.86,173.71L509.93,118.44L513.01,86.73L516.08,84.07L519.15,85.48L522.22,123.64L525.29,180.78L528.37,120.52L531.44,127.91L534.51,129.19L537.58,115.77L540.65,88.7L543.73,124.01L546.8,88.53L549.87,121.41L552.94,115.09L556.01,121.16L559.08,55.81L562.16,123.18L565.23,178.5L568.3,124.32L571.37,86.79L574.44,129.26L577.52,125.33L580.59,129.74L586.73,58.25L589.8,124.68L592.88,142.59L595.95,87L599.02,91.81L602.09,33.96L605.16,127.55L608.24,89.08L611.31,121.82L614.38,191.04L617.45,180.39L620.52,129.92L623.59,165.61L626.67,85.62L629.74,83.73L632.81,113.12L635.88,93.79L638.95,115.09L642.03,191.93L645.1,84.84L648.17,181.93L651.24,122.9L654.31,120.69L657.39,86.7L660.46,62.43L663.53,121.62L666.6,166.9L669.67,118.01L672.75,56L675.82,81.45L678.89,196.39L681.96,172.73L685.03,84.5L688.1,90.94L691.18,130.83L694.25,183.59L697.32,88.11L700.39,93L703.46,85.29L706.54,131.48L709.61,63.17L712.68,176.64L715.75,59.2L718.82,36.16L721.9,121.18L724.97,86.28L728.04,184.3L731.11,179.84L734.18,123.3L737.25,174.71" style="vector-effect: none; fill: none; stroke: rgb(99, 110, 250); stroke-opacity: 1; stroke-width: 0px; opacity: 1;"/></g><g class="points"/><g class="text"/></g><g class="trace scatter trace4c0d68" style="stroke-miterlimit: 2;"><g class="fills"/><g class="errorbars"/><g class="lines"><path class="js-line" d="M3.07,348.54L6.14,358.14L9.22,358.04L12.29,375.57L15.36,347.94L18.43,356.93L21.5,348.97L27.65,366.31L30.72,365.52L33.79,378.67L36.86,345.43L39.93,346.03L43.01,370.68L46.08,350.9L49.15,357.58L52.22,372.5L55.29,349.76L58.37,370.95L61.44,348.17L64.51,352.77L67.58,371.5L70.65,368.13L73.73,370.71L76.8,365.85L79.87,372.53L82.94,361.9L86.01,372.05L92.16,365.03L95.23,358.98L98.3,384.07L101.37,372.2L104.44,350.85L107.52,352.05L110.59,366.38L113.66,350.7L116.73,367.37L119.8,354.97L122.88,357.66L125.95,362.36L129.02,363.59L132.09,355.66L135.16,358.16L138.24,347.8L141.31,331.66L144.38,344.96L147.45,348.41L150.52,339.06L153.59,331.23L156.67,317.77L159.74,339.29L162.81,331.33L165.88,332.64L168.95,325.32L172.03,310.97L175.1,310.06L178.17,327.87L181.24,321.72L187.39,326.26L190.46,305.78L193.53,282.54L196.6,293.13L199.67,314.74L202.75,296.03L205.82,275.72L208.89,281.82L211.96,273.86L215.03,309.38L218.1,312.24L221.18,274.86L224.25,286.26L227.32,280.47L233.46,298.31L236.54,275.57L239.61,296.69L242.68,280.81L245.75,280.58L248.82,294.35L251.9,273.67L254.97,258.92L258.04,228.66L261.11,277.55L264.18,274.86L267.25,273.48L273.4,266.24L276.47,270.71L279.54,280.14L282.61,256.43L285.69,263.73L288.76,259.06L291.83,287.42L294.9,262.13L297.97,260.92L301.05,282.58L304.12,280.33L307.19,246.07L310.26,236.19L313.33,267.49L316.41,254.62L319.48,263.34L322.55,251.75L325.62,258.77L328.69,233.33L331.76,272.42L334.84,254.97L337.91,270.23L340.98,261.04L344.05,265.52L347.12,275.95L350.2,270.62L353.27,248.07L356.34,252.6L359.41,273.06L362.48,281.71L365.56,253.51L368.63,262.32L371.7,225.38L374.77,254.64L377.84,244.3L380.92,257.95L383.99,262.37L387.06,224.52L390.13,274.15L393.2,241.03L396.27,254.32L399.35,235.08L402.42,242.18L405.49,262.09L408.56,242.32L411.63,258.64L414.71,256.96L417.78,261.42L420.85,241.06L423.92,236.1L426.99,250.27L430.07,255.53L433.14,254.73L436.21,235.69L439.28,246.5L442.35,213.43L448.5,263.69L451.57,244.75L454.64,242.66L457.71,258.17L460.78,265.33L463.86,259.04L466.93,251.27L470,264.78L473.07,247.55L476.14,264.62L479.22,254.59L482.29,249.98L485.36,242.1L488.43,214.29L491.5,259.12L494.58,234.07L497.65,253.17L500.72,241.66L503.79,252.79L506.86,255.51L509.93,246.03L513.01,244.23L516.08,238.54L519.15,235.9L522.22,249.81L525.29,239.53L528.37,252.05L531.44,270.22L534.51,262.26L537.58,240.65L540.65,239.03L543.73,266.39L546.8,246.64L549.87,256.48L552.94,247.4L556.01,240.85L559.08,218.78L562.16,258.3L565.23,258.88L568.3,256.95L571.37,243.1L574.44,269.69L577.52,257.26L580.59,260.68L586.73,243.7L589.8,257.11L592.88,272.77L595.95,249.62L599.02,256.83L602.09,224.13L605.16,256.23L608.24,247.82L614.38,251.7L617.45,216.65L620.52,263.16L623.59,243.32L626.67,236.34L629.74,239.49L632.81,237.68L635.88,260.16L638.95,233.85L642.03,246.21L645.1,248.99L648.17,257.53L651.24,239.32L654.31,230.59L657.39,244.62L660.46,246.63L663.53,242.81L666.6,224.55L669.67,241.8L672.75,220.67L675.82,235.25L678.89,256.74L681.96,230.18L685.03,242.44L688.1,251.71L691.18,258.04L694.25,253.33L697.32,250.8L700.39,263.96L703.46,245.24L706.54,265.34L709.61,246.46L712.68,243.59L715.75,242.79L718.82,210.19L721.9,250.25L724.97,244.03L728.04,252.21L731.11,238.29L734.18,236.6L737.25,251.15" style="vector-effect: none; fill: none; stroke: rgb(239, 85, 59); stroke-opacity: 1; stroke-width: 0px; opacity: 1;"/></g><g class="points"/><g class="text"/></g><g class="trace scatter trace9863c2" style="stroke-miterlimit: 2; opacity: 1;"><g class="fills"/><g class="errorbars"/><g class="lines"><path class="js-line" d="M3.07,330.18L6.14,324.13L9.22,322.96L12.29,322.12L15.36,328.31L18.43,326.85L21.5,327.8L24.58,321.88L27.65,322.99L30.72,327.34L33.79,311.81L36.86,328.1L39.93,329.84L43.01,313.87L46.08,322.62L49.15,317.71L52.22,319.28L55.29,322.94L58.37,307.92L61.44,322.73L64.51,320.07L67.58,308.04L70.65,315.85L73.73,307.89L76.8,316.99L79.87,297.55L82.94,304.54L86.01,313.01L89.08,298.84L92.16,305.03L95.23,286.84L98.3,292.61L101.37,301.46L104.44,300.47L107.52,302.71L110.59,273.38L113.66,268.6L116.73,290.89L119.8,276.24L122.88,262.89L125.95,240.4L129.02,285.34L132.09,284.89L138.24,245.2L141.31,216.47L144.38,267.8L147.45,244.41L150.52,247.87L153.59,276.57L156.67,253.75L159.74,258.71L162.81,259.8L165.88,227.53L168.95,219.82L172.03,226.45L175.1,214.87L178.17,240.95L181.24,267.23L184.31,220.39L187.39,270.24L190.46,217.55L193.53,199.65L196.6,193.33L199.67,204.78L202.75,209.83L205.82,219.91L208.89,202.27L211.96,174.21L215.03,204.99L218.1,261.44L221.18,223.31L224.25,196.57L227.32,187.08L233.46,243.92L236.54,185.19L239.61,199.15L242.68,187.24L245.75,206.42L248.82,195.68L251.9,222.69L254.97,161.07L258.04,133.11L261.11,204.67L264.18,182.91L267.25,227.05L270.33,224.91L273.4,197.68L276.47,222.06L279.54,202.22L282.61,172.18L285.69,174.25L288.76,174.53L291.83,207.06L294.9,219.9L297.97,188.95L301.05,210.32L304.12,205.53L310.26,161.58L313.33,195.73L316.41,170.26L319.48,192.64L322.55,184.42L325.62,190.71L328.69,142.6L331.76,200.33L334.84,216.55L337.91,199.03L340.98,174.38L344.05,198.98L347.12,203.26L350.2,202.88L353.27,169.35L356.34,156.92L359.41,201.42L362.48,213.71L365.56,171.38L368.63,177.88L371.7,130.4L374.77,191.1L377.84,163.92L380.92,189.52L383.99,225.73L387.06,200.06L390.13,203.09L393.2,203.83L396.27,171.09L399.35,158.95L402.42,177.16L405.49,177.02L408.56,179.06L411.63,223.56L414.71,170.92L417.78,222.06L420.85,181.54L423.92,177.82L430.07,158.56L433.14,186.31L436.21,199.41L439.28,182.07L442.35,135.42L445.42,163.9L448.5,229.55L451.57,208.96L454.64,163.5L457.71,175.05L463.86,221.39L466.93,169.86L470,178.92L473.07,167.41L476.14,196.43L479.22,160.56L482.29,212.65L485.36,151.66L488.43,127.22L491.5,192.46L494.58,159.82L497.65,216.4L500.72,210.46L503.79,188.61L506.86,214.61L509.93,182.24L513.01,165.48L516.08,161.31L519.15,160.69L522.22,186.73L525.29,210.15L528.37,186.29L531.44,199.06L534.51,195.73L540.65,163.86L543.73,195.2L546.8,167.58L549.87,188.95L552.94,181.25L556.01,181.01L559.08,137.29L562.16,190.74L565.23,218.69L568.3,190.63L571.37,164.94L574.44,199.47L577.52,191.3L580.59,195.21L586.73,150.98L589.8,190.9L592.88,207.68L595.95,168.31L599.02,174.32L602.09,129.05L605.16,191.89L608.24,168.45L611.31,185.63L614.38,221.37L617.45,198.52L620.52,196.54L623.59,204.46L626.67,160.98L629.74,161.61L632.81,175.4L635.88,176.98L638.95,174.47L642.03,219.07L645.1,166.91L648.17,219.73L651.24,181.11L654.31,175.64L657.39,165.66L660.46,154.53L663.53,182.21L666.6,195.72L669.67,179.91L672.75,138.33L675.82,158.35L678.89,226.57L681.96,201.45L685.03,163.47L688.1,171.32L694.25,218.46L697.32,169.46L700.39,178.48L703.46,165.27L706.54,198.41L709.61,154.81L712.68,210.11L715.75,151L718.82,123.18L721.9,185.71L724.97,165.16L728.04,218.25L731.11,209.06L734.18,179.95L737.25,212.93" style="vector-effect: none; fill: none; stroke: rgb(99, 110, 250); stroke-opacity: 1; stroke-width: 2.4px; opacity: 1;"/></g><g class="points"/><g class="text"/></g></g></g></g><g class="zerolinelayer-above"/><path class="xlines-above crisp" d="M83,464.5H836" style="fill: none; stroke-width: 1px; stroke: rgb(207, 213, 223); stroke-opacity: 1;"/><path class="ylines-above crisp" d="M83.5,118V464" style="fill: none; stroke-width: 1px; stroke: rgb(207, 213, 223); stroke-opacity: 1;"/><g class="overlines-above"/><g class="xaxislayer-above"><path class="xtick ticks crisp" d="M0,465v5" transform="translate(84,0)" style="stroke: rgb(207, 213, 223); stroke-opacity: 1; stroke-width: 1px;"/><path class="xtick ticks crisp" d="M0,465v5" transform="translate(237.59,0)" style="stroke: rgb(207, 213, 223); stroke-opacity: 1; stroke-width: 1px;"/><path class="xtick ticks crisp" d="M0,465v5" transform="translate(391.19,0)" style="stroke: rgb(207, 213, 223); stroke-opacity: 1; stroke-width: 1px;"/><path class="xtick ticks crisp" d="M0,465v5" transform="translate(544.78,0)" style="stroke: rgb(207, 213, 223); stroke-opacity: 1; stroke-width: 1px;"/><path class="xtick ticks crisp" d="M0,465v5" transform="translate(698.38,0)" style="stroke: rgb(207, 213, 223); stroke-opacity: 1; stroke-width: 1px;"/><g class="xtick"><text text-anchor="middle" x="0" y="484.4" transform="translate(84,0)" style="font-family: -apple-system, BlinkMacSystemFont, 'Segoe UI', sans-serif; font-size: 12px; fill: rgb(107, 114, 128); fill-opacity: 1; white-space: pre;">0</text></g><g class="xtick"><text text-anchor="middle" x="0" y="484.4" style="font-family: -apple-system, BlinkMacSystemFont, 'Segoe UI', sans-serif; font-size: 12px; fill: rgb(107, 114, 128); fill-opacity: 1; white-space: pre;" transform="translate(237.59,0)">50</text></g><g class="xtick"><text text-anchor="middle" x="0" y="484.4" style="font-family: -apple-system, BlinkMacSystemFont, 'Segoe UI', sans-serif; font-size: 12px; fill: rgb(107, 114, 128); fill-opacity: 1; white-space: pre;" transform="translate(391.19,0)">100</text></g><g class="xtick"><text text-anchor="middle" x="0" y="484.4" style="font-family: -apple-system, BlinkMacSystemFont, 'Segoe UI', sans-serif; font-size: 12px; fill: rgb(107, 114, 128); fill-opacity: 1; white-space: pre;" transform="translate(544.78,0)">150</text></g><g class="xtick"><text text-anchor="middle" x="0" y="484.4" style="font-family: -apple-system, BlinkMacSystemFont, 'Segoe UI', sans-serif; font-size: 12px; fill: rgb(107, 114, 128); fill-opacity: 1; white-space: pre;" transform="translate(698.38,0)">200</text></g></g><g class="yaxislayer-above"><path class="ytick ticks crisp" d="M83,0h-5" transform="translate(0,457.93)" style="stroke: rgb(207, 213, 223); stroke-opacity: 1; stroke-width: 1px;"/><path class="ytick ticks crisp" d="M83,0h-5" transform="translate(0,382.05)" style="stroke: rgb(207, 213, 223); stroke-opacity: 1; stroke-width: 1px;"/><path class="ytick ticks crisp" d="M83,0h-5" transform="translate(0,306.18)" style="stroke: rgb(207, 213, 223); stroke-opacity: 1; stroke-width: 1px;"/><path class="ytick ticks crisp" d="M83,0h-5" transform="translate(0,230.3)" style="stroke: rgb(207, 213, 223); stroke-opacity: 1; stroke-width: 1px;"/><path class="ytick ticks crisp" d="M83,0h-5" transform="translate(0,154.42000000000002)" style="stroke: rgb(207, 213, 223); stroke-opacity: 1; stroke-width: 1px;"/><g class="ytick"><text text-anchor="end" x="75.6" y="4.199999999999999" transform="translate(0,457.93)" style="font-family: -apple-system, BlinkMacSystemFont, 'Segoe UI', sans-serif; font-size: 12px; fill: rgb(107, 114, 128); fill-opacity: 1; white-space: pre;">0</text></g><g class="ytick"><text text-anchor="end" x="75.6" y="4.199999999999999" style="font-family: -apple-system, BlinkMacSystemFont, 'Segoe UI', sans-serif; font-size: 12px; fill: rgb(107, 114, 128); fill-opacity: 1; white-space: pre;" transform="translate(0,382.05)">0.25</text></g><g class="ytick"><text text-anchor="end" x="75.6" y="4.199999999999999" style="font-family: -apple-system, BlinkMacSystemFont, 'Segoe UI', sans-serif; font-size: 12px; fill: rgb(107, 114, 128); fill-opacity: 1; white-space: pre;" transform="translate(0,306.18)">0.5</text></g><g class="ytick"><text text-anchor="end" x="75.6" y="4.199999999999999" style="font-family: -apple-system, BlinkMacSystemFont, 'Segoe UI', sans-serif; font-size: 12px; fill: rgb(107, 114, 128); fill-opacity: 1; white-space: pre;" transform="translate(0,230.3)">0.75</text></g><g class="ytick"><text text-anchor="end" x="75.6" y="4.199999999999999" style="font-family: -apple-system, BlinkMacSystemFont, 'Segoe UI', sans-serif; font-size: 12px; fill: rgb(107, 114, 128); fill-opacity: 1; white-space: pre;" transform="translate(0,154.42000000000002)">1</text></g></g><g class="overaxes-above"/></g></g><g class="polarlayer"/><g class="smithlayer"/><g class="ternarylayer"/><g class="geolayer"/><g class="funnelarealayer"/><g class="pielayer"/><g class="iciclelayer"/><g class="treemaplayer"/><g class="sunburstlayer"/><g class="glimages"/><defs id="topdefs-8ce831"><g class="clips"/></defs><g class="layer-above"><g class="imagelayer"/><g class="shapelayer"><g class="shape-group" data-index="0"><path data-index="0" fill-rule="evenodd" d="M 90.94782608695652,463.69107142857143 L 829.0521739130436,463.69107142857143 Q 835.591304347826,463.69107142857143 835.591304347826,458.7482142857143 L 835.591304347826,123.25178571428569 Q 835.591304347826,118.30892857142857 829.0521739130436,118.30892857142857 L 90.94782608695652,118.30892857142857 Q 84.40869565217392,118.30892857142857 84.40869565217392,123.25178571428569 L 84.40869565217392,458.7482142857143 Q 84.40869565217392,463.69107142857143 90.94782608695652,463.69107142857143 Z" style="opacity: 1; stroke: rgb(217, 221, 231); stroke-opacity: 1; fill: rgb(0, 0, 0); fill-opacity: 0; stroke-width: 1px;"/></g><g class="shape-group" data-index="1" clip-path="url(#clip8ce831x)"><path data-index="1" fill-rule="evenodd" d="M802.82,464L802.82,118" style="opacity: 1; stroke: rgb(154, 161, 173); stroke-opacity: 1; fill: rgb(0, 0, 0); fill-opacity: 0; stroke-dasharray: 9px, 9px; stroke-width: 1px;"/></g></g></g><g class="infolayer"><g class="g-gtitle"/><g class="g-xtitle"><text class="xtitle" x="460" y="511.700390625" text-anchor="middle" style="opacity: 1; font-family: -apple-system, BlinkMacSystemFont, 'Segoe UI', sans-serif; font-size: 14px; fill: rgb(107, 114, 128); fill-opacity: 1; white-space: pre;">GRPO step</text></g><g class="g-ytitle"><text class="ytitle" transform="rotate(-90,31.121484375,291)" x="31.121484375" y="291" text-anchor="middle" style="opacity: 1; font-family: -apple-system, BlinkMacSystemFont, 'Segoe UI', sans-serif; font-size: 14px; fill: rgb(107, 114, 128); fill-opacity: 1; white-space: pre;">reward</text></g><g class="annotation" data-index="0" style="opacity: 1;"><g class="annotation-text-g" transform="rotate(0,363.66,49.96000000000003)"><g class="cursor-pointer" transform="translate(50,35)"><rect class="bg" x="0.5" y="0.5" width="626" height="29" style="stroke-width: 1px; stroke: rgb(0, 0, 0); stroke-opacity: 0; fill: rgb(0, 0, 0); fill-opacity: 0;"/><text class="annotation-text" text-anchor="middle" x="313.25" y="23" style="font-family: -apple-system, BlinkMacSystemFont, 'Segoe UI', sans-serif; font-size: 22px; fill: rgb(31, 41, 55); fill-opacity: 1; white-space: pre;"><tspan style="font-weight:bold">Esme-214M-RL: GRPO training dynamics on Countdown-Lite</tspan></text></g></g></g><g class="annotation" data-index="1" style="opacity: 1;"><g class="annotation-text-g" transform="rotate(0,272.66,81.79)"><g class="cursor-pointer" transform="translate(50,71)"><rect class="bg" x="0.5" y="0.5" width="444" height="20" style="stroke-width: 1px; stroke: rgb(0, 0, 0); stroke-opacity: 0; fill: rgb(0, 0, 0); fill-opacity: 0;"/><text class="annotation-text" text-anchor="middle" x="222.6640625" y="16" style="font-family: -apple-system, BlinkMacSystemFont, 'Segoe UI', sans-serif; font-size: 14px; fill: rgb(107, 114, 128); fill-opacity: 1; white-space: pre;">Reward mean +-1 std across 128 rollouts/step - 240 steps, one A100</text></g></g></g><g class="annotation" data-index="2" style="opacity: 1;"><g class="annotation-text-g" transform="rotate(0,319.16,526.48)"><g class="cursor-pointer" transform="translate(50,509)"><rect class="bg" x="0.5" y="0.5" width="537" height="34" style="stroke-width: 1px; stroke: rgb(0, 0, 0); stroke-opacity: 0; fill: rgb(0, 0, 0); fill-opacity: 0;"/><text class="annotation-text" text-anchor="start" x="2" y="14" style="font-family: -apple-system, BlinkMacSystemFont, 'Segoe UI', sans-serif; font-size: 12px; fill: rgb(107, 114, 128); fill-opacity: 1; white-space: pre;"><tspan class="line" dy="0em" x="2" y="14">Conclusion: reward climbs from 0.03 to a best of 0.71 at step 234 with no collapse</tspan><tspan class="line" dy="1.3em" x="2" y="14">(last-20-step mean 0.51); the best and final checkpoints score identically on the held-out eval.</tspan></text></g></g></g><g class="annotation" data-index="3" style="opacity: 1;"><g class="annotation-text-g" transform="rotate(0,926.32,137.88)"><g class="cursor-pointer" transform="translate(809,128)"><rect class="bg" x="0.5" y="0.5" width="234" height="18" style="stroke-width: 1px; stroke: rgb(0, 0, 0); stroke-opacity: 0; fill: rgb(0, 0, 0); fill-opacity: 0;"/><text class="annotation-text" text-anchor="middle" x="117.5234375" y="14" style="font-family: -apple-system, BlinkMacSystemFont, 'Segoe UI', sans-serif; font-size: 12px; fill: rgb(154, 161, 173); fill-opacity: 1; white-space: pre;">best checkpoint - step 234 (reward 0.71)</text></g></g></g></g></svg>