<svg class="main-svg" xmlns="http://www.w3.org/2000/svg" xmlns:xlink="http://www.w3.org/1999/xlink" width="1180" height="600" style="" viewBox="0 0 1180 600"><rect x="0" y="0" width="1180" height="600" style="fill: rgb(255, 255, 255); fill-opacity: 1;"/><defs id="defs-221251"><g class="clips"><clipPath id="clip221251xyplot" class="plotclip"><rect width="466.2" height="372"/></clipPath><clipPath id="clip221251x2y2plot" class="plotclip"><rect width="466.19999999999993" height="372"/></clipPath><clipPath class="axesclip" id="clip221251x"><rect x="72" y="0" width="466.2" height="600"/></clipPath><clipPath class="axesclip" id="clip221251y"><rect x="0" y="132" width="1180" height="372"/></clipPath><clipPath class="axesclip" id="clip221251xy"><rect x="72" y="132" width="466.2" height="372"/></clipPath><clipPath class="axesclip" id="clip221251y2"><rect x="0" y="132" width="1180" height="372"/></clipPath><clipPath class="axesclip" id="clip221251xy2"><rect x="72" y="132" width="466.2" height="372"/></clipPath><clipPath class="axesclip" id="clip221251x2"><rect x="641.8000000000001" y="0" width="466.19999999999993" height="600"/></clipPath><clipPath class="axesclip" id="clip221251x2y"><rect x="641.8000000000001" y="132" width="466.19999999999993" height="372"/></clipPath><clipPath class="axesclip" id="clip221251x2y2"><rect x="641.8000000000001" y="132" width="466.19999999999993" height="372"/></clipPath></g><g class="gradients"/><g class="patterns"/></defs><g class="bglayer"/><g class="layer-below"><g class="imagelayer"/><g class="shapelayer"/></g><g class="cartesianlayer"><g class="subplot xy"><g class="layer-subplot"><g class="shapelayer"/><g class="imagelayer"/></g><g class="minor-gridlayer"><g class="x"/><g class="y"/></g><g class="gridlayer"><g class="x"><path class="xgrid crisp" transform="translate(167.22,0)" d="M0,132v372" style="stroke: rgb(238, 241, 246); stroke-opacity: 1; stroke-width: 1px;"/><path class="xgrid crisp" transform="translate(262.44,0)" d="M0,132v372" style="stroke: rgb(238, 241, 246); stroke-opacity: 1; stroke-width: 1px;"/><path class="xgrid crisp" transform="translate(357.66,0)" d="M0,132v372" style="stroke: rgb(238, 241, 246); stroke-opacity: 1; stroke-width: 1px;"/><path class="xgrid crisp" transform="translate(452.88,0)" d="M0,132v372" style="stroke: rgb(238, 241, 246); stroke-opacity: 1; stroke-width: 1px;"/></g><g class="y"><path class="ygrid crisp" transform="translate(0,389.54)" d="M72,0h466.2" style="stroke: rgb(238, 241, 246); stroke-opacity: 1; stroke-width: 1px;"/><path class="ygrid crisp" transform="translate(0,275.08000000000004)" d="M72,0h466.2" style="stroke: rgb(238, 241, 246); stroke-opacity: 1; stroke-width: 1px;"/><path class="ygrid crisp" transform="translate(0,160.62)" d="M72,0h466.2" style="stroke: rgb(238, 241, 246); stroke-opacity: 1; stroke-width: 1px;"/></g></g><g class="zerolinelayer"/><g class="layer-between"><g class="shapelayer"/><g class="imagelayer"/></g><path class="xlines-below"/><path class="ylines-below"/><g class="overlines-below"/><g class="xaxislayer-below"/><g class="yaxislayer-below"/><g class="overaxes-below"/><g class="overplot"><g class="xy" transform="translate(72,132)" clip-path="url(#clip221251xyplot)"><g class="scatterlayer mlayer"><g class="trace scatter trace0d79cd" style="stroke-miterlimit: 2; opacity: 0.6;"><g class="fills"/><g class="errorbars"/><g class="lines"><path class="js-line" d="M0.48,296.88L4.76,287.94L9.52,283.47L14.28,287.94L19.04,283.47L23.81,234.29L28.57,261.12L33.33,238.76L38.09,243.23L42.85,265.59L47.61,270.06L52.37,229.82L57.13,265.59L61.89,216.4L66.65,238.76L71.42,261.12L76.18,202.99L80.94,229.82L85.7,229.82L90.46,252.17L95.22,234.29L99.98,198.52L104.74,225.35L109.5,189.58L114.26,225.35L119.03,171.69L123.79,144.87L128.55,95.68L133.31,122.51L138.07,109.1L142.83,109.1L147.59,131.45L152.35,118.04L157.11,95.68L161.88,118.04L166.64,113.57L171.4,82.27L176.16,113.57L180.92,77.8L185.68,122.51L190.44,109.1L195.2,104.63L199.96,64.38L204.72,100.15L209.49,113.57L214.25,100.15L219.01,104.63L223.77,95.68L228.53,55.44L233.29,68.86L238.05,64.38L242.81,77.8L247.57,68.86L252.33,55.44L257.1,59.91L261.86,50.97L266.62,50.97L271.38,55.44L276.14,50.97L280.9,59.91L285.66,46.5L290.42,73.33L295.18,42.03L299.94,59.91L304.71,68.86L309.47,82.27L314.23,50.97L318.99,77.8L323.75,95.68L328.51,37.56L333.27,55.44L338.03,50.97L342.79,55.44L347.56,46.5L352.32,42.03L357.08,50.97L361.84,33.09L366.6,42.03L371.36,42.03L376.12,42.03L380.88,59.91L385.64,46.5L390.4,55.44L395.17,55.44L399.93,64.38L404.69,50.97L409.45,50.97L418.97,50.97L423.73,68.86L428.49,59.91L433.25,46.5L438.01,59.91L442.78,50.97L447.54,46.5L452.3,46.5L457.06,46.5" style="vector-effect: none; fill: none; stroke: rgb(99, 110, 250); stroke-opacity: 1; stroke-width: 1.9px; opacity: 1;"/></g><g class="points"/><g class="text"/></g></g></g></g><g class="zerolinelayer-above"/><path class="xlines-above crisp" d="M71,504.5H538.2" style="fill: none; stroke-width: 1px; stroke: rgb(207, 213, 223); stroke-opacity: 1;"/><path class="ylines-above crisp" d="M71.5,132V504" style="fill: none; stroke-width: 1px; stroke: rgb(207, 213, 223); stroke-opacity: 1;"/><g class="overlines-above"/><g class="xaxislayer-above"><path class="xtick ticks crisp" d="M0,505v5" transform="translate(72,0)" style="stroke: rgb(207, 213, 223); stroke-opacity: 1; stroke-width: 1px;"/><path class="xtick ticks crisp" d="M0,505v5" transform="translate(167.22,0)" style="stroke: rgb(207, 213, 223); stroke-opacity: 1; stroke-width: 1px;"/><path class="xtick ticks crisp" d="M0,505v5" transform="translate(262.44,0)" style="stroke: rgb(207, 213, 223); stroke-opacity: 1; stroke-width: 1px;"/><path class="xtick ticks crisp" d="M0,505v5" transform="translate(357.66,0)" style="stroke: rgb(207, 213, 223); stroke-opacity: 1; stroke-width: 1px;"/><path class="xtick ticks crisp" d="M0,505v5" transform="translate(452.88,0)" style="stroke: rgb(207, 213, 223); stroke-opacity: 1; stroke-width: 1px;"/><g class="xtick"><text text-anchor="middle" x="0" y="524.4" transform="translate(72,0)" style="font-family: -apple-system, BlinkMacSystemFont, 'Segoe UI', sans-serif; font-size: 12px; fill: rgb(107, 114, 128); fill-opacity: 1; white-space: pre;">0</text></g><g class="xtick"><text text-anchor="middle" x="0" y="524.4" style="font-family: -apple-system, BlinkMacSystemFont, 'Segoe UI', sans-serif; font-size: 12px; fill: rgb(107, 114, 128); fill-opacity: 1; white-space: pre;" transform="translate(167.22,0)">200</text></g><g class="xtick"><text text-anchor="middle" x="0" y="524.4" style="font-family: -apple-system, BlinkMacSystemFont, 'Segoe UI', sans-serif; font-size: 12px; fill: rgb(107, 114, 128); fill-opacity: 1; white-space: pre;" transform="translate(262.44,0)">400</text></g><g class="xtick"><text text-anchor="middle" x="0" y="524.4" style="font-family: -apple-system, BlinkMacSystemFont, 'Segoe UI', sans-serif; font-size: 12px; fill: rgb(107, 114, 128); fill-opacity: 1; white-space: pre;" transform="translate(357.66,0)">600</text></g><g class="xtick"><text text-anchor="middle" x="0" y="524.4" style="font-family: -apple-system, BlinkMacSystemFont, 'Segoe UI', sans-serif; font-size: 12px; fill: rgb(107, 114, 128); fill-opacity: 1; white-space: pre;" transform="translate(452.88,0)">800</text></g></g><g class="yaxislayer-above"><path class="ytick ticks crisp" d="M71,0h-5" transform="translate(0,504)" style="stroke: rgb(207, 213, 223); stroke-opacity: 1; stroke-width: 1px;"/><path class="ytick ticks crisp" d="M71,0h-5" transform="translate(0,389.54)" style="stroke: rgb(207, 213, 223); stroke-opacity: 1; stroke-width: 1px;"/><path class="ytick ticks crisp" d="M71,0h-5" transform="translate(0,275.08000000000004)" style="stroke: rgb(207, 213, 223); stroke-opacity: 1; stroke-width: 1px;"/><path class="ytick ticks crisp" d="M71,0h-5" transform="translate(0,160.62)" style="stroke: rgb(207, 213, 223); stroke-opacity: 1; stroke-width: 1px;"/><g class="ytick"><text text-anchor="end" x="63.6" y="4.199999999999999" transform="translate(0,504)" style="font-family: -apple-system, BlinkMacSystemFont, 'Segoe UI', sans-serif; font-size: 12px; fill: rgb(107, 114, 128); fill-opacity: 1; white-space: pre;">0.4</text></g><g class="ytick"><text text-anchor="end" x="63.6" y="4.199999999999999" style="font-family: -apple-system, BlinkMacSystemFont, 'Segoe UI', sans-serif; font-size: 12px; fill: rgb(107, 114, 128); fill-opacity: 1; white-space: pre;" transform="translate(0,389.54)">0.6</text></g><g class="ytick"><text text-anchor="end" x="63.6" y="4.199999999999999" style="font-family: -apple-system, BlinkMacSystemFont, 'Segoe UI', sans-serif; font-size: 12px; fill: rgb(107, 114, 128); fill-opacity: 1; white-space: pre;" transform="translate(0,275.08000000000004)">0.8</text></g><g class="ytick"><text text-anchor="end" x="63.6" y="4.199999999999999" style="font-family: -apple-system, BlinkMacSystemFont, 'Segoe UI', sans-serif; font-size: 12px; fill: rgb(107, 114, 128); fill-opacity: 1; white-space: pre;" transform="translate(0,160.62)">1</text></g></g><g class="overaxes-above"/></g><g class="subplot x2y2"><g class="layer-subplot"><g class="shapelayer"/><g class="imagelayer"/></g><g class="minor-gridlayer"><g class="x2"/><g class="y2"/></g><g class="gridlayer"><g class="x2"><path class="x2grid crisp" transform="translate(737.0200000000001,0)" d="M0,132v372" style="stroke: rgb(238, 241, 246); stroke-opacity: 1; stroke-width: 1px;"/><path class="x2grid crisp" transform="translate(832.24,0)" d="M0,132v372" style="stroke: rgb(238, 241, 246); stroke-opacity: 1; stroke-width: 1px;"/><path class="x2grid crisp" transform="translate(927.46,0)" d="M0,132v372" style="stroke: rgb(238, 241, 246); stroke-opacity: 1; stroke-width: 1px;"/><path class="x2grid crisp" transform="translate(1022.6800000000001,0)" d="M0,132v372" style="stroke: rgb(238, 241, 246); stroke-opacity: 1; stroke-width: 1px;"/></g><g class="y2"><path class="y2grid crisp" transform="translate(0,429.6)" d="M641.8000000000001,0h466.19999999999993" style="stroke: rgb(238, 241, 246); stroke-opacity: 1; stroke-width: 1px;"/><path class="y2grid crisp" transform="translate(0,355.2)" d="M641.8000000000001,0h466.19999999999993" style="stroke: rgb(238, 241, 246); stroke-opacity: 1; stroke-width: 1px;"/><path class="y2grid crisp" transform="translate(0,280.8)" d="M641.8000000000001,0h466.19999999999993" style="stroke: rgb(238, 241, 246); stroke-opacity: 1; stroke-width: 1px;"/><path class="y2grid crisp" transform="translate(0,206.4)" d="M641.8000000000001,0h466.19999999999993" style="stroke: rgb(238, 241, 246); stroke-opacity: 1; stroke-width: 1px;"/></g></g><g class="zerolinelayer"/><g class="layer-between"><g class="shapelayer"/><g class="imagelayer"/></g><path class="xlines-below"/><path class="ylines-below"/><g class="overlines-below"/><g class="xaxislayer-below"/><g class="yaxislayer-below"/><g class="overaxes-below"/><g class="overplot"><g class="x2y2" transform="translate(641.8000000000001,132)" clip-path="url(#clip221251x2y2plot)"><g class="scatterlayer mlayer"><g class="trace scatter tracea7530f" style="stroke-miterlimit: 2; opacity: 1;"><g class="fills"/><g class="errorbars"/><g class="lines"><path class="js-line" d="M28.57,241.66L57.13,140.81L85.7,125.29L114.26,136.93L142.83,140.81L171.4,129.17L199.96,105.9L228.53,121.41L257.1,133.05L285.66,98.14L314.23,113.66L342.79,121.41L371.36,117.53L399.93,109.78L428.49,105.9L457.06,105.9" style="vector-effect: none; fill: none; stroke: rgb(0, 204, 150); stroke-opacity: 1; stroke-width: 2.8px; opacity: 1;"/></g><g class="points"/><g class="text"/></g></g></g></g><g class="zerolinelayer-above"/><path class="xlines-above crisp" d="M640.8000000000001,504.5H1108" style="fill: none; stroke-width: 1px; stroke: rgb(207, 213, 223); stroke-opacity: 1;"/><path class="ylines-above crisp" d="M641.3000000000001,132V504" style="fill: none; stroke-width: 1px; stroke: rgb(207, 213, 223); stroke-opacity: 1;"/><g class="overlines-above"/><g class="xaxislayer-above"><path class="x2tick ticks crisp" d="M0,505v5" transform="translate(641.8000000000001,0)" style="stroke: rgb(207, 213, 223); stroke-opacity: 1; stroke-width: 1px;"/><path class="x2tick ticks crisp" d="M0,505v5" transform="translate(737.0200000000001,0)" style="stroke: rgb(207, 213, 223); stroke-opacity: 1; stroke-width: 1px;"/><path class="x2tick ticks crisp" d="M0,505v5" transform="translate(832.24,0)" style="stroke: rgb(207, 213, 223); stroke-opacity: 1; stroke-width: 1px;"/><path class="x2tick ticks crisp" d="M0,505v5" transform="translate(927.46,0)" style="stroke: rgb(207, 213, 223); stroke-opacity: 1; stroke-width: 1px;"/><path class="x2tick ticks crisp" d="M0,505v5" transform="translate(1022.6800000000001,0)" style="stroke: rgb(207, 213, 223); stroke-opacity: 1; stroke-width: 1px;"/><g class="x2tick"><text text-anchor="middle" x="0" y="524.4" transform="translate(641.8000000000001,0)" style="font-family: -apple-system, BlinkMacSystemFont, 'Segoe UI', sans-serif; font-size: 12px; fill: rgb(107, 114, 128); fill-opacity: 1; white-space: pre;">0</text></g><g class="x2tick"><text text-anchor="middle" x="0" y="524.4" style="font-family: -apple-system, BlinkMacSystemFont, 'Segoe UI', sans-serif; font-size: 12px; fill: rgb(107, 114, 128); fill-opacity: 1; white-space: pre;" transform="translate(737.0200000000001,0)">200</text></g><g class="x2tick"><text text-anchor="middle" x="0" y="524.4" style="font-family: -apple-system, BlinkMacSystemFont, 'Segoe UI', sans-serif; font-size: 12px; fill: rgb(107, 114, 128); fill-opacity: 1; white-space: pre;" transform="translate(832.24,0)">400</text></g><g class="x2tick"><text text-anchor="middle" x="0" y="524.4" style="font-family: -apple-system, BlinkMacSystemFont, 'Segoe UI', sans-serif; font-size: 12px; fill: rgb(107, 114, 128); fill-opacity: 1; white-space: pre;" transform="translate(927.46,0)">600</text></g><g class="x2tick"><text text-anchor="middle" x="0" y="524.4" style="font-family: -apple-system, BlinkMacSystemFont, 'Segoe UI', sans-serif; font-size: 12px; fill: rgb(107, 114, 128); fill-opacity: 1; white-space: pre;" transform="translate(1022.6800000000001,0)">800</text></g></g><g class="yaxislayer-above"><path class="y2tick ticks crisp" d="M640.8000000000001,0h-5" transform="translate(0,504)" style="stroke: rgb(207, 213, 223); stroke-opacity: 1; stroke-width: 1px;"/><path class="y2tick ticks crisp" d="M640.8000000000001,0h-5" transform="translate(0,429.6)" style="stroke: rgb(207, 213, 223); stroke-opacity: 1; stroke-width: 1px;"/><path class="y2tick ticks crisp" d="M640.8000000000001,0h-5" transform="translate(0,355.2)" style="stroke: rgb(207, 213, 223); stroke-opacity: 1; stroke-width: 1px;"/><path class="y2tick ticks crisp" d="M640.8000000000001,0h-5" transform="translate(0,280.8)" style="stroke: rgb(207, 213, 223); stroke-opacity: 1; stroke-width: 1px;"/><path class="y2tick ticks crisp" d="M640.8000000000001,0h-5" transform="translate(0,206.4)" style="stroke: rgb(207, 213, 223); stroke-opacity: 1; stroke-width: 1px;"/><path class="y2tick ticks crisp" d="M640.8000000000001,0h-5" transform="translate(0,132)" style="stroke: rgb(207, 213, 223); stroke-opacity: 1; stroke-width: 1px;"/><g class="y2tick"><text text-anchor="end" x="633.4000000000001" y="4.199999999999999" transform="translate(0,504)" style="font-family: -apple-system, BlinkMacSystemFont, 'Segoe UI', sans-serif; font-size: 12px; fill: rgb(107, 114, 128); fill-opacity: 1; white-space: pre;">0.60</text></g><g class="y2tick"><text text-anchor="end" x="633.4000000000001" y="4.199999999999999" style="font-family: -apple-system, BlinkMacSystemFont, 'Segoe UI', sans-serif; font-size: 12px; fill: rgb(107, 114, 128); fill-opacity: 1; white-space: pre;" transform="translate(0,429.6)">0.62</text></g><g class="y2tick"><text text-anchor="end" x="633.4000000000001" y="4.199999999999999" style="font-family: -apple-system, BlinkMacSystemFont, 'Segoe UI', sans-serif; font-size: 12px; fill: rgb(107, 114, 128); fill-opacity: 1; white-space: pre;" transform="translate(0,355.2)">0.64</text></g><g class="y2tick"><text text-anchor="end" x="633.4000000000001" y="4.199999999999999" style="font-family: -apple-system, BlinkMacSystemFont, 'Segoe UI', sans-serif; font-size: 12px; fill: rgb(107, 114, 128); fill-opacity: 1; white-space: pre;" transform="translate(0,280.8)">0.66</text></g><g class="y2tick"><text text-anchor="end" x="633.4000000000001" y="4.199999999999999" style="font-family: -apple-system, BlinkMacSystemFont, 'Segoe UI', sans-serif; font-size: 12px; fill: rgb(107, 114, 128); fill-opacity: 1; white-space: pre;" transform="translate(0,206.4)">0.68</text></g><g class="y2tick"><text text-anchor="end" x="633.4000000000001" y="4.199999999999999" style="font-family: -apple-system, BlinkMacSystemFont, 'Segoe UI', sans-serif; font-size: 12px; fill: rgb(107, 114, 128); fill-opacity: 1; white-space: pre;" transform="translate(0,132)">0.70</text></g></g><g class="overaxes-above"/></g></g><g class="polarlayer"/><g class="smithlayer"/><g class="ternarylayer"/><g class="geolayer"/><g class="funnelarealayer"/><g class="pielayer"/><g class="iciclelayer"/><g class="treemaplayer"/><g class="sunburstlayer"/><g class="glimages"/><defs id="topdefs-221251"><g class="clips"/></defs><g class="layer-above"><g class="imagelayer"/><g class="shapelayer"><g class="shape-group" data-index="0"><path data-index="0" fill-rule="evenodd" d="M 79.46271186440678,503.69 L 530.7372881355932,503.69 Q 537.7610169491525,503.69 537.7610169491525,498.73 L 537.7610169491525,137.27 Q 537.7610169491525,132.31 530.7372881355932,132.31 L 79.46271186440678,132.31 Q 72.43898305084745,132.31 72.43898305084745,137.27 L 72.43898305084745,498.73 Q 72.43898305084745,503.69 79.46271186440678,503.69 Z" style="opacity: 1; stroke: rgb(217, 221, 231); stroke-opacity: 1; fill: rgb(0, 0, 0); fill-opacity: 0; stroke-width: 1px;"/></g><g class="shape-group" data-index="1"><path data-index="1" fill-rule="evenodd" d="M 649.2627118644068,503.69 L 1100.5372881355931,503.69 Q 1107.5610169491524,503.69 1107.5610169491524,498.73 L 1107.5610169491524,137.27 Q 1107.5610169491524,132.31 1100.5372881355931,132.31 L 649.2627118644068,132.31 Q 642.2389830508475,132.31 642.2389830508475,137.27 L 642.2389830508475,498.73 Q 642.2389830508475,503.69 649.2627118644068,503.69 Z" style="opacity: 1; stroke: rgb(217, 221, 231); stroke-opacity: 1; fill: rgb(0, 0, 0); fill-opacity: 0; stroke-width: 1px;"/></g><g class="shape-group" data-index="2" clip-path="url(#clip221251x)"><path data-index="2" fill-rule="evenodd" d="M357.66,504L357.66,132" style="opacity: 1; stroke: rgb(154, 161, 173); stroke-opacity: 1; fill: rgb(0, 0, 0); fill-opacity: 0; stroke-dasharray: 9px, 9px; stroke-width: 1px;"/></g><g class="shape-group" data-index="3" clip-path="url(#clip221251x2)"><path data-index="3" fill-rule="evenodd" d="M927.46,504L927.46,132" style="opacity: 1; stroke: rgb(154, 161, 173); stroke-opacity: 1; fill: rgb(0, 0, 0); fill-opacity: 0; stroke-dasharray: 9px, 9px; stroke-width: 1px;"/></g></g></g><g class="infolayer"><g class="g-gtitle"/><g class="g-xtitle"><text class="xtitle" x="305.1" y="551.700390625" text-anchor="middle" style="opacity: 1; font-family: -apple-system, BlinkMacSystemFont, 'Segoe UI', sans-serif; font-size: 14px; fill: rgb(107, 114, 128); fill-opacity: 1; white-space: pre;">DPO step</text></g><g class="g-x2title"><text class="x2title" x="874.9000000000001" y="551.700390625" text-anchor="middle" style="opacity: 1; font-family: -apple-system, BlinkMacSystemFont, 'Segoe UI', sans-serif; font-size: 14px; fill: rgb(107, 114, 128); fill-opacity: 1; white-space: pre;">DPO step</text></g><g class="g-ytitle"><text class="ytitle" transform="rotate(-90,26.168359375,318)" x="26.168359375" y="318" text-anchor="middle" style="opacity: 1; font-family: -apple-system, BlinkMacSystemFont, 'Segoe UI', sans-serif; font-size: 14px; fill: rgb(107, 114, 128); fill-opacity: 1; white-space: pre;">preference accuracy</text></g><g class="g-y2title"><text class="y2title" transform="rotate(-90,588.453515625,318)" x="588.453515625" y="318" text-anchor="middle" style="opacity: 1; font-family: -apple-system, BlinkMacSystemFont, 'Segoe UI', sans-serif; font-size: 14px; fill: rgb(107, 114, 128); fill-opacity: 1; white-space: pre;">held-out accuracy</text></g><g class="annotation" data-index="0" style="opacity: 1;"><g class="annotation-text-g" transform="rotate(0,305.1,121.99999999999999)"><g class="cursor-pointer" transform="translate(163,112)"><rect class="bg" x="0.5" y="0.5" width="283" height="19" style="stroke-width: 1px; stroke: rgb(0, 0, 0); stroke-opacity: 0; fill: rgb(0, 0, 0); fill-opacity: 0;"/><text class="annotation-text" text-anchor="middle" x="142.078125" y="15" style="font-family: -apple-system, BlinkMacSystemFont, 'Segoe UI', sans-serif; font-size: 13.5px; fill: rgb(55, 65, 81); fill-opacity: 1; white-space: pre;">Train preference accuracy (overfits to ~0.95)</text></g></g></g><g class="annotation" data-index="1" style="opacity: 1;"><g class="annotation-text-g" transform="rotate(0,874.9,122)"><g class="cursor-pointer" transform="translate(750,112)"><rect class="bg" x="0.5" y="0.5" width="248" height="19" style="stroke-width: 1px; stroke: rgb(0, 0, 0); stroke-opacity: 0; fill: rgb(0, 0, 0); fill-opacity: 0;"/><text class="annotation-text" text-anchor="middle" x="124.3203125" y="15" style="font-family: -apple-system, BlinkMacSystemFont, 'Segoe UI', sans-serif; font-size: 13.5px; fill: rgb(55, 65, 81); fill-opacity: 1; white-space: pre;">Held-out preference accuracy, zoomed</text></g></g></g><g class="annotation" data-index="2" style="opacity: 1;"><g class="annotation-text-g" transform="rotate(0,72.48,444.88)"><g class="cursor-pointer" transform="translate(53,435)"><rect class="bg" x="0.5" y="0.5" width="37" height="18" style="stroke-width: 1px; stroke: rgb(0, 0, 0); stroke-opacity: 0; fill: rgb(0, 0, 0); fill-opacity: 0;"/><text class="annotation-text" text-anchor="middle" x="19.2109375" y="14" style="font-family: -apple-system, BlinkMacSystemFont, 'Segoe UI', sans-serif; font-size: 12px; fill: rgb(107, 114, 128); fill-opacity: 1; white-space: pre;">53.1%</text></g></g></g><g class="annotation" data-index="3" style="opacity: 1;"><g class="annotation-text-g" transform="rotate(0,305.48,164.44)"><g class="cursor-pointer" transform="translate(279,155)"><rect class="bg" x="0.5" y="0.5" width="51" height="18" style="stroke-width: 1px; stroke: rgb(0, 0, 0); stroke-opacity: 0; fill: rgb(0, 0, 0); fill-opacity: 0;"/><text class="annotation-text" text-anchor="middle" x="25.8046875" y="14" style="font-family: -apple-system, BlinkMacSystemFont, 'Segoe UI', sans-serif; font-size: 12.5px; fill: rgb(99, 110, 250); fill-opacity: 1; white-space: pre;"><tspan style="font-weight:bold">~95.1%</tspan></text></g></g></g><g class="annotation" data-index="4" style="opacity: 1;"><g class="annotation-text-g" transform="rotate(0,204.49,443.91)"><g class="cursor-pointer" transform="translate(136,434)"><rect class="bg" x="0.5" y="0.5" width="136" height="18" style="stroke-width: 1px; stroke: rgb(0, 0, 0); stroke-opacity: 0; fill: rgb(0, 0, 0); fill-opacity: 0;"/><text class="annotation-text" text-anchor="middle" x="68.5" y="14" style="font-family: -apple-system, BlinkMacSystemFont, 'Segoe UI', sans-serif; font-size: 12.5px; fill: rgb(55, 65, 81); fill-opacity: 1; white-space: pre;"><tspan style="font-weight:bold">+42.0 pp</tspan>  step 1→600</text></g></g></g><g class="annotation" data-index="5" style="opacity: 1;"><g class="annotation-text-g" transform="rotate(0,192.99,472.52)"><g class="cursor-pointer" transform="translate(136,464)"><rect class="bg" x="0.5" y="0.5" width="113" height="16" style="stroke-width: 1px; stroke: rgb(0, 0, 0); stroke-opacity: 0; fill: rgb(0, 0, 0); fill-opacity: 0;"/><text class="annotation-text" text-anchor="middle" x="56.875" y="13" style="font-family: -apple-system, BlinkMacSystemFont, 'Segoe UI', sans-serif; font-size: 11.5px; fill: rgb(154, 161, 173); fill-opacity: 1; white-space: pre;">accepted · step 600</text></g></g></g><g class="annotation" data-index="6" style="opacity: 1;"><g class="annotation-text-g" transform="rotate(0,670.3700000000001,389.65999999999997)"><g class="cursor-pointer" transform="translate(650,380)"><rect class="bg" x="0.5" y="0.5" width="39" height="18" style="stroke-width: 1px; stroke: rgb(0, 0, 0); stroke-opacity: 0; fill: rgb(0, 0, 0); fill-opacity: 0;"/><text class="annotation-text" text-anchor="middle" x="20.234375" y="14" style="font-family: -apple-system, BlinkMacSystemFont, 'Segoe UI', sans-serif; font-size: 12px; fill: rgb(107, 114, 128); fill-opacity: 1; white-space: pre;">63.5%</text></g></g></g><g class="annotation" data-index="7" style="opacity: 1;"><g class="annotation-text-g" transform="rotate(0,927.46,214.14)"><g class="cursor-pointer" transform="translate(905,205)"><rect class="bg" x="0.5" y="0.5" width="43" height="18" style="stroke-width: 1px; stroke: rgb(0, 0, 0); stroke-opacity: 0; fill: rgb(0, 0, 0); fill-opacity: 0;"/><text class="annotation-text" text-anchor="middle" x="22.109375" y="14" style="font-family: -apple-system, BlinkMacSystemFont, 'Segoe UI', sans-serif; font-size: 12.5px; fill: rgb(0, 204, 150); fill-opacity: 1; white-space: pre;"><tspan style="font-weight:bold">67.4%</tspan></text></g></g></g><g class="annotation" data-index="8" style="opacity: 1;"><g class="annotation-text-g" transform="rotate(0,724.5100000000001,446.34)"><g class="cursor-pointer" transform="translate(656,437)"><rect class="bg" x="0.5" y="0.5" width="137" height="18" style="stroke-width: 1px; stroke: rgb(0, 0, 0); stroke-opacity: 0; fill: rgb(0, 0, 0); fill-opacity: 0;"/><text class="annotation-text" text-anchor="middle" x="69.2109375" y="14" style="font-family: -apple-system, BlinkMacSystemFont, 'Segoe UI', sans-serif; font-size: 12.5px; fill: rgb(55, 65, 81); fill-opacity: 1; white-space: pre;"><tspan style="font-weight:bold">+3.9 pp</tspan>  step 60→600</text></g></g></g><g class="annotation" data-index="9" style="opacity: 1;"><g class="annotation-text-g" transform="rotate(0,712.5100000000001,476.1)"><g class="cursor-pointer" transform="translate(656,468)"><rect class="bg" x="0.5" y="0.5" width="113" height="16" style="stroke-width: 1px; stroke: rgb(0, 0, 0); stroke-opacity: 0; fill: rgb(0, 0, 0); fill-opacity: 0;"/><text class="annotation-text" text-anchor="middle" x="56.875" y="13" style="font-family: -apple-system, BlinkMacSystemFont, 'Segoe UI', sans-serif; font-size: 11.5px; fill: rgb(154, 161, 173); fill-opacity: 1; white-space: pre;">accepted · step 600</text></g></g></g><g class="annotation" data-index="10" style="opacity: 1;"><g class="annotation-text-g" transform="rotate(0,237.02,35.39999999999999)"><g class="cursor-pointer" transform="translate(15,20)"><rect class="bg" x="0.5" y="0.5" width="443" height="29" style="stroke-width: 1px; stroke: rgb(0, 0, 0); stroke-opacity: 0; fill: rgb(0, 0, 0); fill-opacity: 0;"/><text class="annotation-text" text-anchor="middle" x="222.15625" y="23" style="font-family: -apple-system, BlinkMacSystemFont, 'Segoe UI', sans-serif; font-size: 22px; fill: rgb(31, 41, 55); fill-opacity: 1; white-space: pre;"><tspan style="font-weight:bold">Esme-214M-Chat: DPO preference training</tspan></text></g></g></g><g class="annotation" data-index="11" style="opacity: 1;"><g class="annotation-text-g" transform="rotate(0,328.52,71.82000000000004)"><g class="cursor-pointer" transform="translate(15,61)"><rect class="bg" x="0.5" y="0.5" width="626" height="20" style="stroke-width: 1px; stroke: rgb(0, 0, 0); stroke-opacity: 0; fill: rgb(0, 0, 0); fill-opacity: 0;"/><text class="annotation-text" text-anchor="middle" x="313.5859375" y="16" style="font-family: -apple-system, BlinkMacSystemFont, 'Segoe UI', sans-serif; font-size: 14px; fill: rgb(107, 114, 128); fill-opacity: 1; white-space: pre;">Train and held-out preference accuracy over 960 steps · UltraFeedback-binarized pairs, beta 0.5</text></g></g></g><g class="annotation" data-index="12" style="opacity: 1;"><g class="annotation-text-g" transform="rotate(0,359.52,579.1600000000001)"><g class="cursor-pointer" transform="translate(15,562)"><rect class="bg" x="0.5" y="0.5" width="688" height="34" style="stroke-width: 1px; stroke: rgb(0, 0, 0); stroke-opacity: 0; fill: rgb(0, 0, 0); fill-opacity: 0;"/><text class="annotation-text" text-anchor="start" x="2" y="14" style="font-family: -apple-system, BlinkMacSystemFont, 'Segoe UI', sans-serif; font-size: 12px; fill: rgb(107, 114, 128); fill-opacity: 1; white-space: pre;"><tspan class="line" dy="0em" x="2" y="14">Conclusion: train preference accuracy overfits toward 0.95, so the accepted checkpoint is chosen at the held-out peak</tspan><tspan class="line" dy="1.3em" x="2" y="14">(step 600, 67.4%) — early stopping against DPO overfitting. Held-out still improves, modestly: +3.9 pp from the first eval.</tspan></text></g></g></g></g></svg>